<svg width="1584" height="396" viewBox="0 0 1584 396" fill="none" xmlns="http://www.w3.org/2000/svg">
<rect width="1584" height="396" fill="#F5F5F5"/>
<g id="Awesome banner" clip-path="url(#clip0_0_1)">
<rect width="1584" height="396" fill="url(#paint0_linear_0_1)"/>
<ellipse id="Ellipse 2" cx="323" cy="64" rx="285" ry="288" fill="url(#paint1_linear_0_1)" fill-opacity="0.1"/>
<g id="copyright">
<path d="M75.95 334.52L72.30 334.52L72.30 311.16L77.20 311.16L83.70 330.04Q83.60 329.02 83.50 327.62Q83.41 326.23 83.33 324.79Q83.25 323.35 83.25 322.23L83.25 311.16L86.90 311.16L86.90 334.52L82 334.52L75.57 315.64Q75.63 316.57 75.73 317.88Q75.82 319.19 75.89 320.57Q75.95 321.94 75.95 323.10L75.95 334.52M98.80 334.84Q96.46 334.84 94.67 333.96Q92.88 333.08 91.89 331.53Q90.90 329.98 90.90 327.93Q90.90 325.78 92.13 324.18Q93.36 322.58 95.34 322.17L95.34 322.10Q93.65 321.75 92.61 320.38Q91.57 319 91.57 317.11Q91.57 315.26 92.48 313.85Q93.39 312.44 95.02 311.64Q96.66 310.84 98.80 310.84Q100.94 310.84 102.59 311.64Q104.24 312.44 105.15 313.85Q106.06 315.26 106.06 317.11Q106.06 319 105.01 320.38Q103.95 321.75 102.26 322.10L102.26 322.17Q104.24 322.58 105.47 324.18Q106.70 325.78 106.70 327.93Q106.70 329.98 105.71 331.53Q104.72 333.08 102.93 333.96Q101.14 334.84 98.80 334.84M98.80 320.73Q100.30 320.73 101.23 319.82Q102.16 318.90 102.16 317.46Q102.16 315.99 101.23 315.08Q100.30 314.17 98.80 314.17Q97.30 314.17 96.37 315.08Q95.44 315.99 95.44 317.46Q95.44 318.90 96.37 319.82Q97.30 320.73 98.80 320.73M98.80 331.45Q100.56 331.45 101.68 330.42Q102.80 329.40 102.80 327.74Q102.80 326.04 101.68 325Q100.56 323.96 98.80 323.96Q97.04 323.96 95.92 325Q94.80 326.04 94.80 327.74Q94.80 329.40 95.92 330.42Q97.04 331.45 98.80 331.45M114.35 334.52L110.70 334.52L110.70 311.16L115.60 311.16L122.10 330.04Q122 329.02 121.90 327.62Q121.81 326.23 121.73 324.79Q121.65 323.35 121.65 322.23L121.65 311.16L125.30 311.16L125.30 334.52L120.40 334.52L113.97 315.64Q114.03 316.57 114.13 317.88Q114.22 319.19 114.29 320.57Q114.35 321.94 114.35 323.10" fill="white" fill-opacity="0.9"/>
<path d="M161.48 325.24L151.24 325.24L151.24 322.68L161.48 322.68" fill="white" fill-opacity="0.9"/>
<path d="M195.02 334.84Q191.82 334.84 189.96 333.05Q188.11 331.26 188.11 328.12L188.11 317.56Q188.11 314.42 189.96 312.63Q191.82 310.84 195.02 310.84Q198.15 310.84 200.01 312.65Q201.87 314.46 201.87 317.56L198.99 317.56Q198.99 315.58 197.95 314.50Q196.91 313.43 195.02 313.43Q193.13 313.43 192.06 314.50Q190.99 315.58 190.99 317.56L190.99 328.12Q190.99 330.10 192.06 331.18Q193.13 332.25 195.02 332.25Q196.91 332.25 197.95 331.18Q198.99 330.10 198.99 328.12L201.87 328.12Q201.87 331.22 200.01 333.03Q198.15 334.84 195.02 334.84" fill="white" fill-opacity="0.9"/>
<path d="M213.96 334.84Q210.83 334.84 209 333.02Q207.18 331.19 207.18 327.80L207.18 317.88Q207.18 314.49 209 312.66Q210.83 310.84 213.96 310.84Q217.10 310.84 218.92 312.66Q220.75 314.49 220.75 317.85L220.75 327.80Q220.75 331.19 218.92 333.02Q217.10 334.84 213.96 334.84M213.96 332.25Q215.85 332.25 216.86 331.18Q217.87 330.10 217.87 328.12L217.87 317.56Q217.87 315.58 216.86 314.50Q215.85 313.43 213.96 313.43Q212.11 313.43 211.08 314.50Q210.06 315.58 210.06 317.56L210.06 328.12Q210.06 330.10 211.08 331.18Q212.11 332.25 213.96 332.25" fill="white" fill-opacity="0.9"/>
<path d="M228.65 334.52L225.87 334.52L225.87 311.16L230.12 311.16L233.10 321.27L236.20 311.16L240.46 311.16L240.46 334.52L237.67 334.52L237.67 323.48Q237.67 321.91 237.72 319.88Q237.77 317.85 237.87 315.77Q237.96 313.69 238.09 312.02L234.31 324.09L231.82 324.09L228.20 312.31Q228.46 314.68 228.55 317.50Q228.65 320.31 228.65 323.48" fill="white" fill-opacity="0.9"/>
<path d="M247.85 334.52L245.07 334.52L245.07 311.16L249.32 311.16L252.30 321.27L255.40 311.16L259.66 311.16L259.66 334.52L256.87 334.52L256.87 323.48Q256.87 321.91 256.92 319.88Q256.97 317.85 257.07 315.77Q257.16 313.69 257.29 312.02L253.51 324.09L251.02 324.09L247.40 312.31Q247.66 314.68 247.75 317.50Q247.85 320.31 247.85 323.48" fill="white" fill-opacity="0.9"/>
<path d="M271.56 334.84Q268.30 334.84 266.57 333.03Q264.84 331.22 264.84 328.12L264.84 311.16L267.72 311.16L267.72 328.12Q267.72 330.04 268.67 331.16Q269.61 332.28 271.56 332.28Q273.48 332.28 274.44 331.16Q275.40 330.04 275.40 328.12L275.40 311.16L278.28 311.16L278.28 328.12Q278.28 331.26 276.57 333.05Q274.86 334.84 271.56 334.84" fill="white" fill-opacity="0.9"/>
<path d="M286.83 334.52L284.04 334.52L284.04 311.16L287.88 311.16L295.02 331.16Q294.95 330.36 294.87 329.19Q294.79 328.02 294.75 326.73Q294.70 325.43 294.70 324.28L294.70 311.16L297.48 311.16L297.48 334.52L293.64 334.52L286.54 314.52Q286.60 315.29 286.67 316.46Q286.73 317.62 286.78 318.92Q286.83 320.22 286.83 321.40" fill="white" fill-opacity="0.9"/>
<path d="M316.20 334.52L303.72 334.52L303.72 331.90L308.49 331.90L308.49 313.78L303.72 313.78L303.72 311.16L316.20 311.16L316.20 313.78L311.43 313.78L311.43 331.90L316.20 331.90" fill="white" fill-opacity="0.9"/>
<path d="M330.60 334.52L327.72 334.52L327.72 313.78L321.32 313.78L321.32 311.16L337 311.16L337 313.78L330.60 313.78" fill="white" fill-opacity="0.9"/>
<path d="M349.80 334.52L346.92 334.52L346.92 325.78L339.88 311.16L342.95 311.16L347.50 320.76Q347.88 321.56 348.11 322.12Q348.33 322.68 348.39 322.94Q348.46 322.68 348.70 322.12Q348.94 321.56 349.32 320.76L353.87 311.16L356.84 311.16L349.80 325.78" fill="white" fill-opacity="0.9"/>
<path d="M382.83 334.52L380.04 334.52L380.04 311.16L383.88 311.16L391.02 331.16Q390.95 330.36 390.87 329.19Q390.79 328.02 390.75 326.73Q390.70 325.43 390.70 324.28L390.70 311.16L393.48 311.16L393.48 334.52L389.64 334.52L382.54 314.52Q382.60 315.29 382.67 316.46Q382.73 317.62 382.78 318.92Q382.83 320.22 382.83 321.40" fill="white" fill-opacity="0.9"/>
<path d="M405.96 334.84Q402.83 334.84 401 333.02Q399.18 331.19 399.18 327.80L399.18 317.88Q399.18 314.49 401 312.66Q402.83 310.84 405.96 310.84Q409.10 310.84 410.92 312.66Q412.75 314.49 412.75 317.85L412.75 327.80Q412.75 331.19 410.92 333.02Q409.10 334.84 405.96 334.84M405.96 332.25Q407.85 332.25 408.86 331.18Q409.87 330.10 409.87 328.12L409.87 317.56Q409.87 315.58 408.86 314.50Q407.85 313.43 405.96 313.43Q404.11 313.43 403.08 314.50Q402.06 315.58 402.06 317.56L402.06 328.12Q402.06 330.10 403.08 331.18Q404.11 332.25 405.96 332.25" fill="white" fill-opacity="0.9"/>
<path d="M424.55 334.52L418.51 334.52L418.51 311.16L424.55 311.16Q426.83 311.16 428.47 312.02Q430.12 312.89 431.03 314.46Q431.95 316.02 431.95 318.17L431.95 327.48Q431.95 329.62 431.03 331.21Q430.12 332.79 428.47 333.66Q426.83 334.52 424.55 334.52M421.39 313.72L421.39 331.96L424.55 331.96Q426.67 331.96 427.87 330.78Q429.07 329.59 429.07 327.48L429.07 318.17Q429.07 316.09 427.87 314.90Q426.67 313.72 424.55 313.72" fill="white" fill-opacity="0.9"/>
<path d="M451.40 334.52L437.96 334.52L437.96 311.16L451.40 311.16L451.40 313.78L440.81 313.78L440.81 321.02L450.28 321.02L450.28 323.58L440.81 323.58L440.81 331.90L451.40 331.90" fill="white" fill-opacity="0.9"/>
<path d="M463.69 334.84Q460.30 334.84 458.28 333.05Q456.27 331.26 456.27 328.12L459.15 328.12Q459.15 330.07 460.39 331.18Q461.64 332.28 463.69 332.28Q465.67 332.28 466.86 331.13Q468.04 329.98 468.04 328.12Q468.04 326.71 467.29 325.67Q466.54 324.63 465.13 324.25L461.58 323.26Q459.37 322.62 458.11 320.97Q456.84 319.32 456.84 317.08Q456.84 315.22 457.67 313.82Q458.51 312.41 460.01 311.62Q461.51 310.84 463.47 310.84Q465.45 310.84 466.97 311.62Q468.49 312.41 469.35 313.80Q470.22 315.19 470.22 317.02L467.34 317.02Q467.34 315.42 466.25 314.41Q465.16 313.40 463.47 313.40Q461.77 313.40 460.71 314.41Q459.66 315.42 459.66 317.02Q459.66 318.30 460.35 319.21Q461.03 320.12 462.28 320.47L465.93 321.50Q468.27 322.14 469.56 323.91Q470.86 325.69 470.86 328.12Q470.86 331.19 468.91 333.02Q466.95 334.84 463.69 334.84" fill="white" fill-opacity="0.9"/>
</g>
<path d="M77.20 197.88Q74.75 197.88 73.46 196.52Q72.16 195.17 72.16 192.84L72.16 180.12L74.32 180.12L74.32 192.84Q74.32 194.28 75.03 195.12Q75.74 195.96 77.20 195.96Q78.64 195.96 79.36 195.12Q80.08 194.28 80.08 192.84L80.08 180.12L82.24 180.12L82.24 192.84Q82.24 195.19 80.96 196.54Q79.67 197.88 77.20 197.88" fill="white" fill-opacity="0.7"/>
<path d="M92.13 197.83L91.07 197.83Q88.86 197.83 87.65 196.84Q86.44 195.84 86.44 194.02L88.60 194.02Q88.60 194.93 89.25 195.44Q89.90 195.96 91.07 195.96L92.13 195.96Q93.33 195.96 93.99 195.43Q94.65 194.90 94.65 193.94Q94.65 192.24 93.09 192.02L89.44 191.50Q88.10 191.30 87.35 190.38Q86.61 189.46 86.61 187.94Q86.61 186.22 87.80 185.23Q88.98 184.25 91.07 184.25L92.13 184.25Q94.05 184.25 95.26 185.20Q96.47 186.14 96.57 187.68L94.38 187.68Q94.34 186.98 93.72 186.53Q93.11 186.07 92.13 186.07L91.07 186.07Q89.97 186.07 89.34 186.58Q88.72 187.08 88.72 187.94Q88.72 189.34 89.99 189.53L93.40 190.01Q96.76 190.49 96.76 193.94Q96.76 195.79 95.55 196.81Q94.34 197.83 92.13 197.83" fill="white" fill-opacity="0.7"/>
<path d="MNaN 197.88Q103.67 197.88 102.24 196.48Q100.82 195.07 100.82 192.60L100.82 189.48Q100.82 187.01 102.24 185.60Q103.67 184.20 NaN 184.20Q107.56 184.20 108.72 184.82Q109.89 185.45 110.54 186.58Q111.18 187.70 111.18 189.24L111.18 191.59L102.93 191.59L102.93 192.84Q102.93 194.30 103.77 195.16Q104.61 196.01 NaN 196.01Q107.20 196.01 107.98 195.54Q108.76 195.07 108.93 194.28L111.09 194.28Q110.87 195.94 109.48 196.91Q108.09 197.88 NaN 197.88M102.93 189.24L102.93 189.91L109.07 189.91L109.07 189.24Q109.07 187.68 108.27 186.83Q107.46 185.98 NaN 185.98Q104.54 185.98 103.73 186.83Q102.93 187.68 102.93 189.24" fill="white" fill-opacity="0.7"/>
<path d="M134.99 197.88Q132.59 197.88 131.20 196.54Q129.81 195.19 129.81 192.84L129.81 184.92Q129.81 182.57 131.20 181.22Q132.59 179.88 134.99 179.88Q137.34 179.88 138.74 181.24Q140.13 182.59 140.13 184.92L137.97 184.92Q137.97 183.43 137.19 182.63Q136.41 181.82 134.99 181.82Q133.58 181.82 132.77 182.63Q131.97 183.43 131.97 184.92L131.97 192.84Q131.97 194.33 132.77 195.13Q133.58 195.94 134.99 195.94Q136.41 195.94 137.19 195.13Q137.97 194.33 137.97 192.84L140.13 192.84Q140.13 195.17 138.74 196.52Q137.34 197.88 134.99 197.88" fill="white" fill-opacity="0.7"/>
<path d="M149.20 197.83Q146.82 197.83 145.42 196.44Q144.02 195.05 144.02 192.55L144.02 189.53Q144.02 187.01 145.41 185.63Q146.80 184.25 149.20 184.25Q151.60 184.25 152.99 185.63Q154.38 187.01 154.38 189.53L154.38 192.55Q154.38 195.05 152.98 196.44Q151.58 197.83 149.20 197.83M149.20 195.91Q150.62 195.91 151.42 195.12Q152.22 194.33 152.22 192.79L152.22 189.29Q152.22 187.75 151.42 186.96Q150.62 186.17 149.20 186.17Q147.81 186.17 146.99 186.96Q146.18 187.75 146.18 189.29L146.18 192.79Q146.18 194.33 146.99 195.12Q147.81 195.91 149.20 195.91" fill="white" fill-opacity="0.7"/>
<path d="M160.77 197.64L158.61 197.64L158.61 184.44L160.77 184.44L160.77 186.96L160.79 186.96Q160.96 185.64 161.87 184.92Q162.78 184.20 164.30 184.20Q166.29 184.20 167.46 185.42Q168.64 186.65 168.64 188.76L168.64 197.64L166.48 197.64L166.48 189.14Q166.48 187.63 165.72 186.83Q164.97 186.02 163.67 186.02Q162.33 186.02 161.55 186.86Q160.77 187.70 160.77 189.24" fill="white" fill-opacity="0.7"/>
<path d="M183.16 197.64L179.32 197.64Q177.69 197.64 176.70 196.69Q175.72 195.74 175.72 194.16L175.72 186.41L171.93 186.41L171.93 184.44L175.72 184.44L175.72 180.72L177.88 180.72L177.88 184.44L183.28 184.44L183.28 186.41L177.88 186.41L177.88 194.16Q177.88 194.83 178.28 195.25Q178.67 195.67 179.32 195.67L183.16 195.67" fill="white" fill-opacity="0.7"/>
<path d="M190.05 197.64L187.89 197.64L187.89 184.44L190.05 184.44L190.05 186.96L190.10 186.96Q190.26 185.69 191.18 184.94Q192.09 184.20 193.62 184.20Q195.69 184.20 196.80 185.44Q197.92 186.67 197.92 188.95L197.92 190.08L195.76 190.08L195.76 188.95Q195.76 186.07 192.95 186.07Q191.54 186.07 190.79 186.89Q190.05 187.70 190.05 189.24" fill="white" fill-opacity="0.7"/>
<path d="M206.80 197.83Q204.42 197.83 203.02 196.44Q201.62 195.05 201.62 192.55L201.62 189.53Q201.62 187.01 203.01 185.63Q204.40 184.25 206.80 184.25Q209.20 184.25 210.59 185.63Q211.98 187.01 211.98 189.53L211.98 192.55Q211.98 195.05 210.58 196.44Q209.18 197.83 206.80 197.83M206.80 195.91Q208.22 195.91 209.02 195.12Q209.82 194.33 209.82 192.79L209.82 189.29Q209.82 187.75 209.02 186.96Q208.22 186.17 206.80 186.17Q205.41 186.17 204.59 186.96Q203.78 187.75 203.78 189.29L203.78 192.79Q203.78 194.33 204.59 195.12Q205.41 195.91 206.80 195.91" fill="white" fill-opacity="0.7"/>
<path d="M227.20 197.64L223.12 197.64Q221.37 197.64 220.32 196.62Q219.28 195.60 219.28 193.92L219.28 182.09L214.72 182.09L214.72 180.12L221.44 180.12L221.44 193.92Q221.44 194.74 221.90 195.20Q222.35 195.67 223.12 195.67L227.20 195.67" fill="white" fill-opacity="0.7"/>
<path d="M246.21 197.64LNaN 197.64L248.56 180.12L251.46 180.12LNaN 197.64L253.82 197.64L252.66 192.98L247.36 192.98L246.21 197.64M249.14 185.74L247.79 191.16L252.21 191.16L250.86 185.76Q250.48 184.22 250.26 183.19Q250.05 182.16 NaN 181.85Q249.95 182.16 249.74 183.19Q249.52 184.22 249.14 185.74" fill="white" fill-opacity="0.7"/>
<path d="M261.57 197.64L259.41 197.64L259.41 180.12L265.05 180.12Q267.50 180.12 268.95 181.52Q270.40 182.93 270.40 185.28Q270.40 187.63 268.95 189.04Q267.50 190.44 265.05 190.44L261.57 190.44L261.57 197.64M261.57 182.06L261.57 188.50L265.05 188.50Q266.46 188.50 267.32 187.62Q268.17 186.74 268.17 185.28Q268.17 183.79 267.32 182.93Q266.46 182.06 265.05 182.06" fill="white" fill-opacity="0.7"/>
<path d="M283.48 197.64L274.12 197.64L274.12 195.67L277.70 195.67L277.70 182.09L274.12 182.09L274.12 180.12L283.48 180.12L283.48 182.09L279.90 182.09L279.90 195.67L283.48 195.67" fill="white" fill-opacity="0.7"/>
<path d="M312.76 197.64L308.92 197.64Q307.29 197.64 306.30 196.69Q305.32 195.74 305.32 194.16L305.32 186.41L301.53 186.41L301.53 184.44L305.32 184.44L305.32 180.72L307.48 180.72L307.48 184.44L312.88 184.44L312.88 186.41L307.48 186.41L307.48 194.16Q307.48 194.83 307.88 195.25Q308.27 195.67 308.92 195.67L312.76 195.67" fill="white" fill-opacity="0.7"/>
<path d="M322 197.83Q319.62 197.83 318.22 196.44Q316.82 195.05 316.82 192.55L316.82 189.53Q316.82 187.01 318.21 185.63Q319.60 184.25 322 184.25Q324.40 184.25 325.79 185.63Q327.18 187.01 327.18 189.53L327.18 192.55Q327.18 195.05 325.78 196.44Q324.38 197.83 322 197.83M322 195.91Q323.42 195.91 324.22 195.12Q325.02 194.33 325.02 192.79L325.02 189.29Q325.02 187.75 324.22 186.96Q323.42 186.17 322 186.17Q320.61 186.17 319.79 186.96Q318.98 187.75 318.98 189.29L318.98 192.79Q318.98 194.33 319.79 195.12Q320.61 195.91 322 195.91" fill="white" fill-opacity="0.7"/>
<path d="M347.06 197.64L345.04 197.64L345.04 184.44L346.91 184.44L346.91 186.19L346.96 186.19Q347.08 185.30 347.67 184.75Q348.26 184.20 349.17 184.20Q350.03 184.20 350.63 184.70Q351.23 185.21 351.50 186.07L351.52 186.07Q351.69 185.21 352.28 184.70Q352.86 184.20 353.78 184.20Q355.05 184.20 355.80 185.15Q356.56 186.10 356.56 187.61L356.56 197.64L354.54 197.64L354.54 187.58Q354.54 186.79 354.16 186.32Q353.78 185.86 353.10 185.86Q352.46 185.86 352.07 186.31Q351.69 186.77 351.69 187.56L351.69 197.64L349.91 197.64L349.91 187.58Q349.91 186.79 349.53 186.32Q349.14 185.86 348.50 185.86Q347.82 185.86 347.44 186.31Q347.06 186.77 347.06 187.56" fill="white" fill-opacity="0.7"/>
<path d="M364.05 197.88Q362.01 197.88 360.81 196.74Q359.61 195.60 359.61 193.75Q359.61 192.53 360.16 191.62Q360.71 190.70 361.70 190.19Q362.68 189.67 363.95 189.67L368.03 189.67L368.03 188.64Q368.03 186.07 365.22 186.07Q363.98 186.07 363.21 186.53Q362.44 186.98 362.39 187.80L360.23 187.80Q360.35 186.24 361.68 185.22Q363.02 184.20 365.22 184.20Q367.62 184.20 368.91 185.35Q370.19 186.50 370.19 188.57L370.19 197.64L368.06 197.64L368.06 195.24L368.01 195.24Q367.82 196.46 366.78 197.17Q365.75 197.88 364.05 197.88M364.58 196.06Q366.16 196.06 367.10 195.29Q368.03 194.52 368.03 193.20L368.03 191.35L364.19 191.35Q363.14 191.35 362.48 191.99Q361.82 192.62 361.82 193.68Q361.82 194.78 362.55 195.42Q363.28 196.06 364.58 196.06" fill="white" fill-opacity="0.7"/>
<path d="M376.77 197.64L374.61 197.64L374.61 184.44L376.77 184.44L376.77 186.96L376.79 186.96Q376.96 185.64 377.87 184.92Q378.78 184.20 380.30 184.20Q382.29 184.20 383.46 185.42Q384.64 186.65 384.64 188.76L384.64 197.64L382.48 197.64L382.48 189.14Q382.48 187.63 381.72 186.83Q380.97 186.02 379.67 186.02Q378.33 186.02 377.55 186.86Q376.77 187.70 376.77 189.24" fill="white" fill-opacity="0.7"/>
<path d="M392.85 197.88Q390.81 197.88 389.61 196.74Q388.41 195.60 388.41 193.75Q388.41 192.53 388.96 191.62Q389.51 190.70 390.50 190.19Q391.48 189.67 392.75 189.67L396.83 189.67L396.83 188.64Q396.83 186.07 394.02 186.07Q392.78 186.07 392.01 186.53Q391.24 186.98 391.19 187.80L389.03 187.80Q389.15 186.24 390.48 185.22Q391.82 184.20 394.02 184.20Q396.42 184.20 397.71 185.35Q398.99 186.50 398.99 188.57L398.99 197.64L396.86 197.64L396.86 195.24L396.81 195.24Q396.62 196.46 395.58 197.17Q394.55 197.88 392.85 197.88M393.38 196.06Q394.96 196.06 395.90 195.29Q396.83 194.52 396.83 193.20L396.83 191.35L392.99 191.35Q391.94 191.35 391.28 191.99Q390.62 192.62 390.62 193.68Q390.62 194.78 391.35 195.42Q392.08 196.06 393.38 196.06" fill="white" fill-opacity="0.7"/>
<path d="M408.76 201.96L405.06 201.96L405.06 199.99L408.78 199.99Q409.91 199.99 410.56 199.36Q411.21 198.72 411.21 197.64L411.21 196.44L411.26 194.28L411.18 194.28Q410.99 195.46 410.06 196.09Q409.12 196.73 407.70 196.73Q405.66 196.73 404.49 195.43Q403.31 194.14 403.31 191.88L403.31 189.10Q403.31 186.84 404.49 185.52Q405.66 184.20 407.70 184.20Q409.12 184.20 410.06 184.87Q410.99 185.54 411.18 186.72L411.23 186.72L411.23 184.44L413.37 184.44L413.37 197.64Q413.37 199.63 412.13 200.80Q410.90 201.96 408.76 201.96M408.35 194.93Q409.70 194.93 410.46 194.09Q411.23 193.25 411.23 191.76L411.23 189.24Q411.23 187.75 410.46 186.91Q409.70 186.07 408.35 186.07Q406.98 186.07 406.23 186.86Q405.47 187.66 405.47 189L405.47 192Q405.47 193.34 406.23 194.14Q406.98 194.93 408.35 194.93" fill="white" fill-opacity="0.7"/>
<path d="M422.80 197.88Q420.47 197.88 419.04 196.48Q417.62 195.07 417.62 192.60L417.62 189.48Q417.62 187.01 419.04 185.60Q420.47 184.20 422.80 184.20Q424.36 184.20 425.52 184.82Q426.69 185.45 427.34 186.58Q427.98 187.70 427.98 189.24L427.98 191.59L419.73 191.59L419.73 192.84Q419.73 194.30 420.57 195.16Q421.41 196.01 422.80 196.01Q424 196.01 424.78 195.54Q425.56 195.07 425.73 194.28L427.89 194.28Q427.67 195.94 426.28 196.91Q424.89 197.88 422.80 197.88M419.73 189.24L419.73 189.91L425.87 189.91L425.87 189.24Q425.87 187.68 425.07 186.83Q424.26 185.98 422.80 185.98Q421.34 185.98 420.53 186.83Q419.73 187.68 419.73 189.24" fill="white" fill-opacity="0.7"/>
<path d="M450.45 197.88Q448.41 197.88 447.21 196.74Q446.01 195.60 446.01 193.75Q446.01 192.53 446.56 191.62Q447.11 190.70 448.10 190.19Q449.08 189.67 450.35 189.67L454.43 189.67L454.43 188.64Q454.43 186.07 451.62 186.07Q450.38 186.07 449.61 186.53Q448.84 186.98 448.79 187.80L446.63 187.80Q446.75 186.24 448.08 185.22Q449.42 184.20 451.62 184.20Q454.02 184.20 455.31 185.35Q456.59 186.50 456.59 188.57L456.59 197.64L454.46 197.64L454.46 195.24L454.41 195.24Q454.22 196.46 453.18 197.17Q452.15 197.88 450.45 197.88M450.98 196.06Q452.56 196.06 453.50 195.29Q454.43 194.52 454.43 193.20L454.43 191.35L450.59 191.35Q449.54 191.35 448.88 191.99Q448.22 192.62 448.22 193.68Q448.22 194.78 448.95 195.42Q449.68 196.06 450.98 196.06" fill="white" fill-opacity="0.7"/>
<path d="M463.17 201.96L461.01 201.96L461.01 184.44L463.17 184.44L463.17 186.96L463.19 186.96Q463.36 185.66 464.32 184.93Q465.28 184.20 466.77 184.20Q468.76 184.20 469.94 185.51Q471.11 186.82 471.11 189.10L471.11 192.96Q471.11 195.24 469.94 196.56Q468.76 197.88 466.77 197.88Q465.28 197.88 464.32 197.14Q463.36 196.39 463.19 195.12L463.12 195.12L463.17 198.12L463.17 201.96M466.05 196.01Q467.42 196.01 468.18 195.29Q468.95 194.57 468.95 192.96L468.95 189.12Q468.95 187.49 468.18 186.78Q467.42 186.07 466.05 186.07Q464.73 186.07 463.95 186.91Q463.17 187.75 463.17 189.24L463.17 192.84Q463.17 194.33 463.95 195.17Q464.73 196.01 466.05 196.01" fill="white" fill-opacity="0.7"/>
<path d="M477.57 201.96L475.41 201.96L475.41 184.44L477.57 184.44L477.57 186.96L477.59 186.96Q477.76 185.66 478.72 184.93Q479.68 184.20 481.17 184.20Q483.16 184.20 484.34 185.51Q485.51 186.82 485.51 189.10L485.51 192.96Q485.51 195.24 484.34 196.56Q483.16 197.88 481.17 197.88Q479.68 197.88 478.72 197.14Q477.76 196.39 477.59 195.12L477.52 195.12L477.57 198.12L477.57 201.96M480.45 196.01Q481.82 196.01 482.58 195.29Q483.35 194.57 483.35 192.96L483.35 189.12Q483.35 187.49 482.58 186.78Q481.82 186.07 480.45 186.07Q479.13 186.07 478.35 186.91Q477.57 187.75 477.57 189.24L477.57 192.84Q477.57 194.33 478.35 195.17Q479.13 196.01 480.45 196.01" fill="white" fill-opacity="0.7"/>
<path d="M495.33 197.83L494.27 197.83Q492.06 197.83 490.85 196.84Q489.64 195.84 489.64 194.02L491.80 194.02Q491.80 194.93 492.45 195.44Q493.10 195.96 494.27 195.96L495.33 195.96Q496.53 195.96 497.19 195.43Q497.85 194.90 497.85 193.94Q497.85 192.24 496.29 192.02L492.64 191.50Q491.30 191.30 490.55 190.38Q489.81 189.46 489.81 187.94Q489.81 186.22 491 185.23Q492.18 184.25 494.27 184.25L495.33 184.25Q497.25 184.25 498.46 185.20Q499.67 186.14 499.77 187.68L497.58 187.68Q497.54 186.98 496.92 186.53Q496.31 186.07 495.33 186.07L494.27 186.07Q493.17 186.07 492.54 186.58Q491.92 187.08 491.92 187.94Q491.92 189.34 493.19 189.53L496.60 190.01Q499.96 190.49 499.96 193.94Q499.96 195.79 498.75 196.81Q497.54 197.83 495.33 197.83" fill="white" fill-opacity="0.7"/>
<path d="M509.27 201.48L507.04 201.48L508.36 194.14L510.95 194.14" fill="white" fill-opacity="0.7"/>
<path d="M535.17 197.64L533.01 197.64L533.01 184.44L535.17 184.44L535.17 186.96L535.19 186.96Q535.36 185.64 536.27 184.92Q537.18 184.20 538.70 184.20Q540.69 184.20 541.86 185.42Q543.04 186.65 543.04 188.76L543.04 197.64L540.88 197.64L540.88 189.14Q540.88 187.63 540.12 186.83Q539.37 186.02 538.07 186.02Q536.73 186.02 535.95 186.86Q535.17 187.70 535.17 189.24" fill="white" fill-opacity="0.7"/>
<path d="M551.25 197.88Q549.21 197.88 548.01 196.74Q546.81 195.60 546.81 193.75Q546.81 192.53 547.36 191.62Q547.91 190.70 548.90 190.19Q549.88 189.67 551.15 189.67L555.23 189.67L555.23 188.64Q555.23 186.07 552.42 186.07Q551.18 186.07 550.41 186.53Q549.64 186.98 549.59 187.80L547.43 187.80Q547.55 186.24 548.88 185.22Q550.22 184.20 552.42 184.20Q554.82 184.20 556.11 185.35Q557.39 186.50 557.39 188.57L557.39 197.64L555.26 197.64L555.26 195.24L555.21 195.24Q555.02 196.46 553.98 197.17Q552.95 197.88 551.25 197.88M551.78 196.06Q553.36 196.06 554.30 195.29Q555.23 194.52 555.23 193.20L555.23 191.35L551.39 191.35Q550.34 191.35 549.68 191.99Q549.02 192.62 549.02 193.68Q549.02 194.78 549.75 195.42Q550.48 196.06 551.78 196.06" fill="white" fill-opacity="0.7"/>
<path d="M563.06 197.64L561.04 197.64L561.04 184.44L562.91 184.44L562.91 186.19L562.96 186.19Q563.08 185.30 563.67 184.75Q564.26 184.20 565.17 184.20Q566.03 184.20 566.63 184.70Q567.23 185.21 567.50 186.07L567.52 186.07Q567.69 185.21 568.28 184.70Q568.86 184.20 569.78 184.20Q571.05 184.20 571.80 185.15Q572.56 186.10 572.56 187.61L572.56 197.64L570.54 197.64L570.54 187.58Q570.54 186.79 570.16 186.32Q569.78 185.86 569.10 185.86Q568.46 185.86 568.07 186.31Q567.69 186.77 567.69 187.56L567.69 197.64L565.91 197.64L565.91 187.58Q565.91 186.79 565.53 186.32Q565.14 185.86 564.50 185.86Q563.82 185.86 563.44 186.31Q563.06 186.77 563.06 187.56" fill="white" fill-opacity="0.7"/>
<path d="M581.20 197.88Q578.87 197.88 577.44 196.48Q576.02 195.07 576.02 192.60L576.02 189.48Q576.02 187.01 577.44 185.60Q578.87 184.20 581.20 184.20Q582.76 184.20 583.92 184.82Q585.09 185.45 585.74 186.58Q586.38 187.70 586.38 189.24L586.38 191.59L578.13 191.59L578.13 192.84Q578.13 194.30 578.97 195.16Q579.81 196.01 581.20 196.01Q582.40 196.01 583.18 195.54Q583.96 195.07 584.13 194.28L586.29 194.28Q586.07 195.94 584.68 196.91Q583.29 197.88 581.20 197.88M578.13 189.24L578.13 189.91L584.27 189.91L584.27 189.24Q584.27 187.68 583.47 186.83Q582.66 185.98 581.20 185.98Q579.74 185.98 578.93 186.83Q578.13 187.68 578.13 189.24" fill="white" fill-opacity="0.7"/>
<path d="M596.13 197.83L595.07 197.83Q592.86 197.83 591.65 196.84Q590.44 195.84 590.44 194.02L592.60 194.02Q592.60 194.93 593.25 195.44Q593.90 195.96 595.07 195.96L596.13 195.96Q597.33 195.96 597.99 195.43Q598.65 194.90 598.65 193.94Q598.65 192.24 597.09 192.02L593.44 191.50Q592.10 191.30 591.35 190.38Q590.61 189.46 590.61 187.94Q590.61 186.22 591.80 185.23Q592.98 184.25 595.07 184.25L596.13 184.25Q598.05 184.25 599.26 185.20Q600.47 186.14 600.57 187.68L598.38 187.68Q598.34 186.98 597.72 186.53Q597.11 186.07 596.13 186.07L595.07 186.07Q593.97 186.07 593.34 186.58Q592.72 187.08 592.72 187.94Q592.72 189.34 593.99 189.53L597.40 190.01Q600.76 190.49 600.76 193.94Q600.76 195.79 599.55 196.81Q598.34 197.83 596.13 197.83" fill="white" fill-opacity="0.7"/>
<path d="M607.17 201.96L605.01 201.96L605.01 184.44L607.17 184.44L607.17 186.96L607.19 186.96Q607.36 185.66 608.32 184.93Q609.28 184.20 610.77 184.20Q612.76 184.20 613.94 185.51Q615.11 186.82 615.11 189.10L615.11 192.96Q615.11 195.24 613.94 196.56Q612.76 197.88 610.77 197.88Q609.28 197.88 608.32 197.14Q607.36 196.39 607.19 195.12L607.12 195.12L607.17 198.12L607.17 201.96M610.05 196.01Q611.42 196.01 612.18 195.29Q612.95 194.57 612.95 192.96L612.95 189.12Q612.95 187.49 612.18 186.78Q611.42 186.07 610.05 186.07Q608.73 186.07 607.95 186.91Q607.17 187.75 607.17 189.24L607.17 192.84Q607.17 194.33 607.95 195.17Q608.73 196.01 610.05 196.01" fill="white" fill-opacity="0.7"/>
<path d="M623.25 197.88Q621.21 197.88 620.01 196.74Q618.81 195.60 618.81 193.75Q618.81 192.53 619.36 191.62Q619.91 190.70 620.90 190.19Q621.88 189.67 623.15 189.67L627.23 189.67L627.23 188.64Q627.23 186.07 624.42 186.07Q623.18 186.07 622.41 186.53Q621.64 186.98 621.59 187.80L619.43 187.80Q619.55 186.24 620.88 185.22Q622.22 184.20 624.42 184.20Q626.82 184.20 628.11 185.35Q629.39 186.50 629.39 188.57L629.39 197.64L627.26 197.64L627.26 195.24L627.21 195.24Q627.02 196.46 625.98 197.17Q624.95 197.88 623.25 197.88M623.78 196.06Q625.36 196.06 626.30 195.29Q627.23 194.52 627.23 193.20L627.23 191.35L623.39 191.35Q622.34 191.35 621.68 191.99Q621.02 192.62 621.02 193.68Q621.02 194.78 621.75 195.42Q622.48 196.06 623.78 196.06" fill="white" fill-opacity="0.7"/>
<path d="M638.99 197.88Q636.59 197.88 635.15 196.54Q633.71 195.19 633.71 192.84L633.71 189.24Q633.71 186.89 635.15 185.54Q636.59 184.20 638.99 184.20Q641.27 184.20 642.68 185.42Q644.08 186.65 644.15 188.76L641.99 188.76Q641.92 187.49 641.13 186.80Q640.34 186.12 638.99 186.12Q637.58 186.12 636.72 186.92Q635.87 187.73 635.87 189.22L635.87 192.84Q635.87 194.33 636.72 195.14Q637.58 195.96 638.99 195.96Q640.34 195.96 641.13 195.26Q641.92 194.57 641.99 193.32L644.15 193.32Q644.08 195.43 642.68 196.66Q641.27 197.88 638.99 197.88" fill="white" fill-opacity="0.7"/>
<path d="M653.20 197.88Q650.87 197.88 649.44 196.48Q648.02 195.07 648.02 192.60L648.02 189.48Q648.02 187.01 649.44 185.60Q650.87 184.20 653.20 184.20Q654.76 184.20 655.92 184.82Q657.09 185.45 657.74 186.58Q658.38 187.70 658.38 189.24L658.38 191.59L650.13 191.59L650.13 192.84Q650.13 194.30 650.97 195.16Q651.81 196.01 653.20 196.01Q654.40 196.01 655.18 195.54Q655.96 195.07 656.13 194.28L658.29 194.28Q658.07 195.94 656.68 196.91Q655.29 197.88 653.20 197.88M650.13 189.24L650.13 189.91L656.27 189.91L656.27 189.24Q656.27 187.68 655.47 186.83Q654.66 185.98 653.20 185.98Q651.74 185.98 650.93 186.83Q650.13 187.68 650.13 189.24" fill="white" fill-opacity="0.7"/>
<path d="M668.13 197.83L667.07 197.83Q664.86 197.83 663.65 196.84Q662.44 195.84 662.44 194.02L664.60 194.02Q664.60 194.93 665.25 195.44Q665.90 195.96 667.07 195.96L668.13 195.96Q669.33 195.96 669.99 195.43Q670.65 194.90 670.65 193.94Q670.65 192.24 669.09 192.02L665.44 191.50Q664.10 191.30 663.35 190.38Q662.61 189.46 662.61 187.94Q662.61 186.22 663.80 185.23Q664.98 184.25 667.07 184.25L668.13 184.25Q670.05 184.25 671.26 185.20Q672.47 186.14 672.57 187.68L670.38 187.68Q670.34 186.98 669.72 186.53Q669.11 186.07 668.13 186.07L667.07 186.07Q665.97 186.07 665.34 186.58Q664.72 187.08 664.72 187.94Q664.72 189.34 665.99 189.53L669.40 190.01Q672.76 190.49 672.76 193.94Q672.76 195.79 671.55 196.81Q670.34 197.83 668.13 197.83" fill="white" fill-opacity="0.7"/>
<path d="M682.07 201.48L679.84 201.48L681.16 194.14L683.75 194.14" fill="white" fill-opacity="0.7"/>
<path d="M708.09 197.64L705.93 197.64L705.93 180.12L708.09 180.12L708.09 189.89L710.61 189.89L714.30 184.44L716.78 184.44L712.53 190.73L717.02 197.64L714.50 197.64L710.66 191.76L708.09 191.76" fill="white" fill-opacity="0.7"/>
<path d="M725.20 197.88Q722.87 197.88 721.44 196.48Q720.02 195.07 720.02 192.60L720.02 189.48Q720.02 187.01 721.44 185.60Q722.87 184.20 725.20 184.20Q726.76 184.20 727.92 184.82Q729.09 185.45 729.74 186.58Q730.38 187.70 730.38 189.24L730.38 191.59L722.13 191.59L722.13 192.84Q722.13 194.30 722.97 195.16Q723.81 196.01 725.20 196.01Q726.40 196.01 727.18 195.54Q727.96 195.07 728.13 194.28L730.29 194.28Q730.07 195.94 728.68 196.91Q727.29 197.88 725.20 197.88M722.13 189.24L722.13 189.91L728.27 189.91L728.27 189.24Q728.27 187.68 727.47 186.83Q726.66 185.98 725.20 185.98Q723.74 185.98 722.93 186.83Q722.13 187.68 722.13 189.24" fill="white" fill-opacity="0.7"/>
<path d="M738.93 201.96L736.67 201.96L738.62 196.82L733.70 184.44L736.02 184.44L739.14 192.60Q739.34 193.08 739.50 193.61Q739.67 194.14 739.74 194.52Q739.82 194.14 739.98 193.61Q740.15 193.08 740.32 192.60L743.22 184.44L745.50 184.44" fill="white" fill-opacity="0.7"/>
<path d="M754.53 197.83L753.47 197.83Q751.26 197.83 750.05 196.84Q748.84 195.84 748.84 194.02L751 194.02Q751 194.93 751.65 195.44Q752.30 195.96 753.47 195.96L754.53 195.96Q755.73 195.96 756.39 195.43Q757.05 194.90 757.05 193.94Q757.05 192.24 755.49 192.02L751.84 191.50Q750.50 191.30 749.75 190.38Q749.01 189.46 749.01 187.94Q749.01 186.22 750.20 185.23Q751.38 184.25 753.47 184.25L754.53 184.25Q756.45 184.25 757.66 185.20Q758.87 186.14 758.97 187.68L756.78 187.68Q756.74 186.98 756.12 186.53Q755.51 186.07 754.53 186.07L753.47 186.07Q752.37 186.07 751.74 186.58Q751.12 187.08 751.12 187.94Q751.12 189.34 752.39 189.53L755.80 190.01Q759.16 190.49 759.16 193.94Q759.16 195.79 757.95 196.81Q756.74 197.83 754.53 197.83" fill="white" fill-opacity="0.7"/>
<path d="M768.47 201.48L766.24 201.48L767.56 194.14L770.15 194.14" fill="white" fill-opacity="0.7"/>
<path d="M802.19 201.96L800.03 201.96L800.03 198.12L800.08 195.12L800.01 195.12Q799.84 196.39 798.88 197.14Q797.92 197.88 796.43 197.88Q794.44 197.88 793.26 196.56Q792.09 195.24 792.09 192.96L792.09 189.10Q792.09 186.82 793.28 185.51Q794.46 184.20 796.43 184.20Q797.92 184.20 798.88 184.93Q799.84 185.66 800.01 186.96L800.03 186.96L800.03 184.44L802.19 184.44L802.19 201.96M797.15 196.01Q798.50 196.01 799.26 195.17Q800.03 194.33 800.03 192.84L800.03 189.24Q800.03 187.75 799.26 186.91Q798.50 186.07 797.15 186.07Q795.78 186.07 795.02 186.77Q794.25 187.46 794.25 189L794.25 193.08Q794.25 194.62 795.02 195.31Q795.78 196.01 797.15 196.01" fill="white" fill-opacity="0.7"/>
<path d="M811.58 197.88Q809.30 197.88 807.93 196.52Q806.56 195.17 806.56 192.84L806.56 184.44L808.72 184.44L808.72 192.84Q808.72 194.28 809.49 195.13Q810.26 195.98 811.58 195.98Q812.92 195.98 813.70 195.13Q814.48 194.28 814.48 192.84L814.48 184.44L816.64 184.44L816.64 192.84Q816.64 195.17 815.25 196.52Q813.86 197.88 811.58 197.88" fill="white" fill-opacity="0.7"/>
<path d="M826 197.88Q823.67 197.88 822.24 196.48Q820.82 195.07 820.82 192.60L820.82 189.48Q820.82 187.01 822.24 185.60Q823.67 184.20 826 184.20Q827.56 184.20 828.72 184.82Q829.89 185.45 830.54 186.58Q831.18 187.70 831.18 189.24L831.18 191.59L822.93 191.59L822.93 192.84Q822.93 194.30 823.77 195.16Q824.61 196.01 826 196.01Q827.20 196.01 827.98 195.54Q828.76 195.07 828.93 194.28L831.09 194.28Q830.87 195.94 829.48 196.91Q828.09 197.88 826 197.88M822.93 189.24L822.93 189.91L829.07 189.91L829.07 189.24Q829.07 187.68 828.27 186.83Q827.46 185.98 826 185.98Q824.54 185.98 823.73 186.83Q822.93 187.68 822.93 189.24" fill="white" fill-opacity="0.7"/>
<path d="M840.38 197.88Q838.10 197.88 836.73 196.52Q835.36 195.17 835.36 192.84L835.36 184.44L837.52 184.44L837.52 192.84Q837.52 194.28 838.29 195.13Q839.06 195.98 840.38 195.98Q841.72 195.98 842.50 195.13Q843.28 194.28 843.28 192.84L843.28 184.44L845.44 184.44L845.44 192.84Q845.44 195.17 844.05 196.52Q842.66 197.88 840.38 197.88" fill="white" fill-opacity="0.7"/>
<path d="M854.80 197.88Q852.47 197.88 851.04 196.48Q849.62 195.07 849.62 192.60L849.62 189.48Q849.62 187.01 851.04 185.60Q852.47 184.20 854.80 184.20Q856.36 184.20 857.52 184.82Q858.69 185.45 859.34 186.58Q859.98 187.70 859.98 189.24L859.98 191.59L851.73 191.59L851.73 192.84Q851.73 194.30 852.57 195.16Q853.41 196.01 854.80 196.01Q856 196.01 856.78 195.54Q857.56 195.07 857.73 194.28L859.89 194.28Q859.67 195.94 858.28 196.91Q856.89 197.88 854.80 197.88M851.73 189.24L851.73 189.91L857.87 189.91L857.87 189.24Q857.87 187.68 857.07 186.83Q856.26 185.98 854.80 185.98Q853.34 185.98 852.53 186.83Q851.73 187.68 851.73 189.24" fill="white" fill-opacity="0.7"/>
<path d="M869.73 197.83L868.67 197.83Q866.46 197.83 865.25 196.84Q864.04 195.84 864.04 194.02L866.20 194.02Q866.20 194.93 866.85 195.44Q867.50 195.96 868.67 195.96L869.73 195.96Q870.93 195.96 871.59 195.43Q872.25 194.90 872.25 193.94Q872.25 192.24 870.69 192.02L867.04 191.50Q865.70 191.30 864.95 190.38Q864.21 189.46 864.21 187.94Q864.21 186.22 865.40 185.23Q866.58 184.25 868.67 184.25L869.73 184.25Q871.65 184.25 872.86 185.20Q874.07 186.14 874.17 187.68L871.98 187.68Q871.94 186.98 871.32 186.53Q870.71 186.07 869.73 186.07L868.67 186.07Q867.57 186.07 866.94 186.58Q866.32 187.08 866.32 187.94Q866.32 189.34 867.59 189.53L871 190.01Q874.36 190.49 874.36 193.94Q874.36 195.79 873.15 196.81Q871.94 197.83 869.73 197.83" fill="white" fill-opacity="0.7"/>
<path d="M883.67 201.48L881.44 201.48L882.76 194.14L885.35 194.14" fill="white" fill-opacity="0.7"/>
<path d="M911.25 197.88Q909.21 197.88 908.01 196.74Q906.81 195.60 906.81 193.75Q906.81 192.53 907.36 191.62Q907.91 190.70 908.90 190.19Q909.88 189.67 911.15 189.67L915.23 189.67L915.23 188.64Q915.23 186.07 912.42 186.07Q911.18 186.07 910.41 186.53Q909.64 186.98 909.59 187.80L907.43 187.80Q907.55 186.24 908.88 185.22Q910.22 184.20 912.42 184.20Q914.82 184.20 916.11 185.35Q917.39 186.50 917.39 188.57L917.39 197.64L915.26 197.64L915.26 195.24L915.21 195.24Q915.02 196.46 913.98 197.17Q912.95 197.88 911.25 197.88M911.78 196.06Q913.36 196.06 914.30 195.29Q915.23 194.52 915.23 193.20L915.23 191.35L911.39 191.35Q910.34 191.35 909.68 191.99Q909.02 192.62 909.02 193.68Q909.02 194.78 909.75 195.42Q910.48 196.06 911.78 196.06" fill="white" fill-opacity="0.7"/>
<path d="M923.97 197.64L921.81 197.64L921.81 184.44L923.97 184.44L923.97 186.96L923.99 186.96Q924.16 185.64 925.07 184.92Q925.98 184.20 927.50 184.20Q929.49 184.20 930.66 185.42Q931.84 186.65 931.84 188.76L931.84 197.64L929.68 197.64L929.68 189.14Q929.68 187.63 928.92 186.83Q928.17 186.02 926.87 186.02Q925.53 186.02 924.75 186.86Q923.97 187.70 923.97 189.24" fill="white" fill-opacity="0.7"/>
<path d="M940.43 197.88Q938.46 197.88 937.28 196.56Q936.09 195.24 936.09 192.98L936.09 189.12Q936.09 186.84 937.26 185.52Q938.44 184.20 940.43 184.20Q941.92 184.20 942.89 184.94Q943.86 185.69 944.06 186.96L944.08 186.96L944.03 183.96L944.03 180.12L946.19 180.12L946.19 197.64L944.03 197.64L944.03 195.12L944.01 195.12Q943.84 196.42 942.88 197.15Q941.92 197.88 940.43 197.88M941.15 196.01Q942.50 196.01 943.26 195.17Q944.03 194.33 944.03 192.84L944.03 189.24Q944.03 187.75 943.26 186.91Q942.50 186.07 941.15 186.07Q939.78 186.07 939.02 186.78Q938.25 187.49 938.25 189.12L938.25 192.96Q938.25 194.57 939.02 195.29Q939.78 196.01 941.15 196.01" fill="white" fill-opacity="0.7"/>
<path d="M967.65 197.64L965.49 197.64L965.49 184.44L967.65 184.44L967.65 186.96L967.70 186.96Q967.86 185.69 968.78 184.94Q969.69 184.20 971.22 184.20Q973.29 184.20 974.40 185.44Q975.52 186.67 975.52 188.95L975.52 190.08L973.36 190.08L973.36 188.95Q973.36 186.07 970.55 186.07Q969.14 186.07 968.39 186.89Q967.65 187.70 967.65 189.24" fill="white" fill-opacity="0.7"/>
<path d="M984.38 197.88Q982.10 197.88 980.73 196.52Q979.36 195.17 979.36 192.84L979.36 184.44L981.52 184.44L981.52 192.84Q981.52 194.28 982.29 195.13Q983.06 195.98 984.38 195.98Q985.72 195.98 986.50 195.13Q987.28 194.28 987.28 192.84L987.28 184.44L989.44 184.44L989.44 192.84Q989.44 195.17 988.05 196.52Q986.66 197.88 984.38 197.88" fill="white" fill-opacity="0.7"/>
<path d="M1004.80 197.64L1000.72 197.64Q998.97 197.64 997.92 196.62Q996.88 195.60 996.88 193.92L996.88 182.09L992.32 182.09L992.32 180.12L999.04 180.12L999.04 193.92Q999.04 194.74 999.50 195.20Q999.95 195.67 1000.72 195.67L1004.80 195.67" fill="white" fill-opacity="0.7"/>
<path d="M1013.20 197.88Q1010.87 197.88 1009.44 196.48Q1008.02 195.07 1008.02 192.60L1008.02 189.48Q1008.02 187.01 1009.44 185.60Q1010.87 184.20 1013.20 184.20Q1014.76 184.20 1015.92 184.82Q1017.09 185.45 1017.74 186.58Q1018.38 187.70 1018.38 189.24L1018.38 191.59L1010.13 191.59L1010.13 192.84Q1010.13 194.30 1010.97 195.16Q1011.81 196.01 1013.20 196.01Q1014.40 196.01 1015.18 195.54Q1015.96 195.07 1016.13 194.28L1018.29 194.28Q1018.07 195.94 1016.68 196.91Q1015.29 197.88 1013.20 197.88M1010.13 189.24L1010.13 189.91L1016.27 189.91L1016.27 189.24Q1016.27 187.68 1015.47 186.83Q1014.66 185.98 1013.20 185.98Q1011.74 185.98 1010.93 186.83Q1010.13 187.68 1010.13 189.24" fill="white" fill-opacity="0.7"/>
<path d="M1028.13 197.83L1027.07 197.83Q1024.86 197.83 1023.65 196.84Q1022.44 195.84 1022.44 194.02L1024.60 194.02Q1024.60 194.93 1025.25 195.44Q1025.90 195.96 1027.07 195.96L1028.13 195.96Q1029.33 195.96 1029.99 195.43Q1030.65 194.90 1030.65 193.94Q1030.65 192.24 1029.09 192.02L1025.44 191.50Q1024.10 191.30 1023.35 190.38Q1022.61 189.46 1022.61 187.94Q1022.61 186.22 1023.80 185.23Q1024.98 184.25 1027.07 184.25L1028.13 184.25Q1030.05 184.25 1031.26 185.20Q1032.47 186.14 1032.57 187.68L1030.38 187.68Q1030.34 186.98 1029.72 186.53Q1029.11 186.07 1028.13 186.07L1027.07 186.07Q1025.97 186.07 1025.34 186.58Q1024.72 187.08 1024.72 187.94Q1024.72 189.34 1025.99 189.53L1029.40 190.01Q1032.76 190.49 1032.76 193.94Q1032.76 195.79 1031.55 196.81Q1030.34 197.83 1028.13 197.83" fill="white" fill-opacity="0.7"/>
<path d="M1042 197.88Q1041.11 197.88 1040.57 197.35Q1040.03 196.82 1040.03 195.98Q1040.03 195.10 1040.57 194.54Q1041.11 193.99 1042 193.99Q1042.89 193.99 1043.43 194.54Q1043.97 195.10 1043.97 195.98Q1043.97 196.82 1043.43 197.35Q1042.89 197.88 1042 197.88" fill="white" fill-opacity="0.7"/>
<path d="M76.11 136.06L66.42 136.06L84.56 65.98L97.14 65.98L115.18 136.06L105.49 136.06L101.07 117.82L80.53 117.82L76.11 136.06M87.54 88.92L82.45 109.95L99.15 109.95L94.16 89.02Q92.72 83.26 91.86 79.23Q90.99 75.20 90.80 73.76Q90.61 75.20 89.74 79.23Q88.88 83.26 87.54 88.92M149.74 136.06L128.14 136.06L128.14 65.98L148.40 65.98Q158.10 65.98 163.71 70.83Q169.33 75.68 169.33 84.12Q169.33 89.60 165.92 93.87Q162.51 98.14 157.14 99.10L157.14 99.39Q161.17 99.87 164.29 102.27Q167.41 104.67 169.18 108.36Q170.96 112.06 170.96 116.48Q170.96 125.50 165.25 130.78Q159.54 136.06 149.74 136.06M137.46 74.33L137.46 95.55L148.30 95.55Q153.68 95.55 156.75 92.72Q159.82 89.88 159.82 84.99Q159.82 80 156.75 77.16Q153.68 74.33 148.40 74.33L137.46 74.33M137.46 103.61L137.46 127.71L148.88 127.71Q154.74 127.71 158.10 124.59Q161.46 121.47 161.46 116.09Q161.46 110.52 158.10 107.07Q154.74 103.61 148.88 103.61L137.46 103.61M230.19 136.06L189.49 136.06L189.49 65.98L198.99 65.98L198.99 127.42L230.19 127.42L230.19 136.06M268.40 136.06L258.90 136.06L258.90 110.04L237.87 65.98L247.95 65.98L260.91 93.63Q262.06 96.12 262.78 98.14Q263.50 100.16 263.70 101.02Q263.98 100.16 264.70 98.14Q265.42 96.12 266.67 93.63L279.54 65.98L289.33 65.98L268.40 110.04L268.40 136.06M379.57 137.02Q369.87 137.02 364.16 131.60Q358.45 126.17 358.45 116.67L358.45 85.28Q358.45 75.87 364.16 70.44Q369.87 65.02 379.57 65.02Q389.17 65.02 394.88 70.49Q400.59 75.96 400.59 85.28L391.09 85.28Q391.09 79.61 388.02 76.54Q384.94 73.47 379.57 73.47Q374.10 73.47 371.02 76.54Q367.95 79.61 367.95 85.28L367.95 116.67Q367.95 122.43 371.02 125.50Q374.10 128.57 379.57 128.57Q384.94 128.57 388.02 125.50Q391.09 122.43 391.09 116.67L400.59 116.67Q400.59 126.08 394.88 131.55Q389.17 137.02 379.57 137.02M436.40 137.02Q426.80 137.02 421.23 131.45Q415.66 125.88 415.66 115.71L415.66 86.24Q415.66 76.16 421.23 70.59Q426.80 65.02 436.40 65.02Q446 65.02 451.57 70.54Q457.14 76.06 457.14 86.24L457.14 115.71Q457.14 125.88 451.57 131.45Q446 137.02 436.40 137.02M436.40 128.57Q441.78 128.57 444.70 125.50Q447.63 122.43 447.63 116.67L447.63 85.28Q447.63 79.61 444.75 76.54Q441.87 73.47 436.40 73.47Q430.93 73.47 428.05 76.54Q425.17 79.61 425.17 85.28L425.17 116.67Q425.17 122.43 428.10 125.50Q431.02 128.57 436.40 128.57M482.38 136.06L473.46 136.06L473.46 65.98L485.74 65.98L506.67 125.12Q506.38 122.62 506.14 118.92Q505.90 115.23 505.76 111.24Q505.62 107.26 505.62 103.71L505.62 65.98L514.64 65.98L514.64 136.06L502.26 136.06L481.52 76.92Q481.71 79.42 481.90 83.02Q482.10 86.62 482.24 90.56Q482.38 94.49 482.38 97.95L482.38 136.06M556.40 136.06L546.90 136.06L546.90 74.62L527.89 74.62L527.89 65.98L575.31 65.98L575.31 74.62L556.40 74.62L556.40 136.06M598.35 136.06L588.94 136.06L588.94 65.98L610.64 65.98Q617.07 65.98 621.87 68.52Q626.67 71.07 629.36 75.63Q632.05 80.19 632.05 86.33Q632.05 93.44 628.45 98.52Q624.85 103.61 618.90 105.72L633.01 136.06L622.54 136.06L609.20 106.78L598.35 106.78L598.35 136.06M598.35 74.43L598.35 98.33L610.64 98.33Q616.02 98.33 619.14 95.07Q622.26 91.80 622.26 86.43Q622.26 80.96 619.09 77.69Q615.92 74.43 610.64 74.43L598.35 74.43M666.80 137.02Q657.20 137.02 651.63 131.45Q646.06 125.88 646.06 115.71L646.06 86.24Q646.06 76.16 651.63 70.59Q657.20 65.02 666.80 65.02Q676.40 65.02 681.97 70.54Q687.54 76.06 687.54 86.24L687.54 115.71Q687.54 125.88 681.97 131.45Q676.40 137.02 666.80 137.02M666.80 128.57Q672.18 128.57 675.10 125.50Q678.03 122.43 678.03 116.67L678.03 85.28Q678.03 79.61 675.15 76.54Q672.27 73.47 666.80 73.47Q661.33 73.47 658.45 76.54Q655.57 79.61 655.57 85.28L655.57 116.67Q655.57 122.43 658.50 125.50Q661.42 128.57 666.80 128.57M748.59 136.06L707.89 136.06L707.89 65.98L717.39 65.98L717.39 127.42L748.59 127.42" fill="url(#paint2_linear_0_1)"/>
<g id="Group 1">
<rect id="Rectangle 1" x="26" y="168" width="12" height="184" rx="5" fill="url(#paint3_linear_0_1)" fill-opacity="0.9"/>
</g>
<g id="Group 1_2">
<rect id="Rectangle 2" x="26" y="38" width="12" height="119" rx="5" fill="url(#paint4_linear_0_1)" fill-opacity="0.9"/>
</g>
<ellipse id="Ellipse 1" cx="148.5" cy="573" rx="215.5" ry="214" fill="url(#paint5_linear_0_1)" fill-opacity="0.4"/>
<rect id="Rectangle 3" x="1229" y="48" width="300" height="300" rx="25" fill="#FFFBFB" fill-opacity="0.9"/>
<g id="placeholder-logo"><g transform="translate(1229,48) translate(0.0,60.0) scale(1.2000)"><g fill="#666666">
  <path d="m88.05,27.65c-3.15,4 -3.2,51.2 -0.05,54.35c2.75,2.75 71.7,3.15 74.45,0.45c2.85,-2.9 2.3,-53.85 -0.65,-55.9c-1.95,-1.35 -7.15,-1.55 -36.95,-1.55l-34.7,0l-2.1,2.65zm69.45,3.35c0.65,0 1,8.6 1,23.75l0,23.75l-33,0l-33,0l-0.25,-23c-0.15,-12.6 -0.1,-23.45 0.15,-24.1c0.35,-0.85 8.9,-1.05 32.25,-0.75c17.55,0.2 32.3,0.35 32.85,0.35z"/>
  <path d="m99.15,37.3c-6.85,7.35 4.25,17.35 11.4,10.25c1.35,-1.35 2.45,-3.65 2.45,-5.05c0,-6.45 -9.35,-9.95 -13.85,-5.2z"/>
  <path d="m135,42.5c-0.7,0.85 -5.25,5.15 -10.1,9.6l-8.85,8.1l-3.2,-3.2l-3.15,-3.15l-6.35,6.3c-5.55,5.5 -6.35,6.75 -6.35,10.05l0,3.8l28.5,0l28.5,0l0,-8.6l0,-8.55l-8.15,-7.7c-9.35,-8.85 -9.15,-8.7 -10.85,-6.65zm7.25,15.2c0.95,0.9 1.75,2.9 1.75,4.45c6.35,-5.05 4.75,-7.15 4.9,-11.55c0.95,0 0,0 0,0l-6.65,7.1z"/>
  <path d="m53.65,110.75c0.1,4.8 0.45,8.65 0.75,8.5c0.35,-0.15 1.3,-0.25 2.1,-0.25c1.1,0 1.5,-1.2 1.5,-4.75l0,-4.75l3.25,5c4.9,7.5 6.2,6.75 6.55,-3.75c0.25,-8.15 0.15,-8.75 -1.7,-8.75c-1.65,0 -2.05,0.8 -2.3,4.75l-0.3,4.75l-2.8,-4.75c-4.85,-8.25 -7.25,-6.9 -7.05,4z"/>
  <path d="m91,108.9c0,9.65 0.3,10.1 6.1,10.1c5.8,0 7.15,-2.65 1.65,-3.2l-3.25,-0.3l-0.3,-6.75c-0.25,-5.95 -0.55,-6.75 -2.25,-6.75c-1.75,0 -1.95,0.7 -1.95,6.9z"/>
  <path d="m151,102.45c0,0.25 1,2.15 2.25,4.2c1.2,2.1 2.45,5.8 2.75,8.25c0.65,5.9 4,6.95 4,1.25c0.05,-2.1 1.25,-5.85 2.95,-8.9l2.9,-5.25l-2.5,0c-1.8,0 -2.8,0.85 -3.75,3.1l-1.3,3.05l-1.25,-3.05c-1.1,-2.6 -6.05,-4.8 -6.05,-2.65z"/>
  <path d="m191,107.45c0,9.05 3.4,8.85 4.25,-0.2c0.45,-5 0.35,-5.25 -1.9,-5.25c-2.2,0 -2.35,0.4 -2.35,5.45z"/>
  <path d="m180.8,104.75c-1.3,5.35 0.65,13.6 3.45,14.35c2.3,0.6 2.75,0.4 2.75,-1.2c0,-1.05 -0.45,-1.9 -1,-1.9c-0.55,0 -1,-1.6 -1,-3.5c0,-1.95 0.45,-3.5 1,-3.5c0.55,0 1,-0.7 1,-1.5c0,-0.85 -0.45,-1.5 -1,-1.5c-0.55,0 -1,-0.7 -1,-1.5c0,-2.1 -3.65,-1.9 -4.2,0.25z"/>
  <path d="m71.55,106.55c-2.2,2.25 -2.05,9.7 0.3,11.8c4.5,4.1 10.15,0.75 10.15,-6.1c0,-4.85 -2,-7.25 -6,-7.25c-1.55,0 -3.55,0.7 -4.45,1.55zm6.25,5.8c0.25,3.05 0,3.65 -1.6,3.65c-2.3,0 -3.25,-2.65 -2.05,-5.85c1.25,-3.35 3.3,-2.1 3.65,2.2z"/>
  <path d="m105.75,106.1c-2.5,1.45 -2.45,9.95 0.1,12.25c4.3,3.9 10.15,0.35 10.15,-6.2c0,-6 -5.15,-9.05 -10.25,-6.05zm6.05,6.25c0.25,3.05 0,3.65 -1.6,3.65c-2.3,0 -3.25,-2.65 -2.05,-5.85c1.25,-3.35 3.3,-2.1 3.65,2.2z"/>
  <path d="m119.2,106.2c-3.8,3.8 -0.4,12.55 4.4,11.35c1.9,-0.45 2.45,-0.3 2.15,0.65c-0.25,0.7 -1.55,1.2 -2.85,1.1c-4.05,-0.3 -5.35,0.45 -3.85,2.25c0.85,1.05 2.6,1.45 5.35,1.25l4.1,-0.3l0.3,-8.75l0.3,-8.75l-4.35,0c-2.4,0 -4.9,0.55 -5.55,1.2zm6.6,4.45c0.4,2.85 -2.15,4.85 -3.75,2.95c-0.9,-1.1 -0.9,-2 -0.05,-3.6c1.35,-2.5 3.4,-2.15 3.8,0.65z"/>
  <path d="m133.55,106.55c-2.2,2.25 -2.05,9.7 0.3,11.8c4.5,4.1 10.15,0.75 10.15,-6.1c0,-4.85 -2,-7.25 -6,-7.25c-1.55,0 -3.55,0.7 -4.45,1.55zm6.25,5.8c0.25,3.05 0,3.65 -1.6,3.65c-2.3,0 -3.25,-2.65 -2.05,-5.85c1.25,-3.35 3.3,-2.1 3.65,2.2z"/>
  <path d="m167.65,106.85c-3.9,4.3 -0.75,13.15 4.7,13.15c2.4,0 5.65,-2.75 5.65,-4.85c0,-1.4 -2.65,-1.55 -3.5,-0.15c-0.95,1.55 -4.5,1.15 -4.5,-0.5c0,-1.1 1.1,-1.5 4,-1.5c3.15,0 4,-0.35 4,-1.8c0,-5.3 -6.85,-8.25 -10.35,-4.35z"/>
  <path d="m191,117.5c0,2.15 0.4,2.6 2.25,2.3c1.5,-0.2 2.25,-1 2.25,-2.3c0,-1.3 -0.75,-2.1 -2.25,-2.3c-1.85,-0.3 -2.25,0.15 -2.25,2.3z"/>
 </g></g></g>
</g>
<defs>
<linearGradient id="paint0_linear_0_1" x1="0" y1="198" x2="1584" y2="198" gradientUnits="userSpaceOnUse">
<stop stop-color="#3D052C"/>
<stop offset="1"/>
</linearGradient>
<linearGradient id="paint1_linear_0_1" x1="323" y1="-224" x2="323" y2="352" gradientUnits="userSpaceOnUse">
<stop stop-color="#28F6F2" stop-opacity="0.4"/>
<stop offset="1" stop-color="#17908E" stop-opacity="0.7"/>
</linearGradient>
<linearGradient id="paint2_linear_0_1" x1="148.5" y1="38" x2="148.5" y2="140" gradientUnits="userSpaceOnUse">
<stop stop-color="white"/>
<stop offset="1" stop-color="#999999"/>
</linearGradient>
<linearGradient id="paint3_linear_0_1" x1="38" y1="260" x2="26" y2="260" gradientUnits="userSpaceOnUse">
<stop stop-color="#D9D9D9"/>
<stop offset="1" stop-color="#737373"/>
</linearGradient>
<linearGradient id="paint4_linear_0_1" x1="38" y1="97.5" x2="26" y2="97.5" gradientUnits="userSpaceOnUse">
<stop stop-color="#D9D9D9"/>
<stop offset="1" stop-color="#737373"/>
</linearGradient>
<linearGradient id="paint5_linear_0_1" x1="27.5" y1="434.5" x2="148.5" y2="787" gradientUnits="userSpaceOnUse">
<stop stop-color="#2E21BC"/>
<stop offset="1" stop-color="#150F56"/>
</linearGradient>
<clipPath id="clip0_0_1">
<rect width="1584" height="396" fill="white"/>
</clipPath>
</defs>
</svg>
