<svg width="1584" height="396" viewBox="0 0 1584 396" fill="none" xmlns="http://www.w3.org/2000/svg">
<rect width="1584" height="396" fill="#F5F5F5"/>
<g id="Awesome banner" clip-path="url(#clip0_0_1)">
<rect width="1584" height="396" fill="url(#paint0_linear_0_1)"/>
<ellipse id="Ellipse 2" cx="323" cy="64" rx="285" ry="288" fill="url(#paint1_linear_0_1)" fill-opacity="0.1"/>
<g id="copyright">
<path d="M75.95 334.52L72.30 334.52L72.30 311.16L77.20 311.16L83.70 330.04Q83.60 329.02 83.50 327.62Q83.41 326.23 83.33 324.79Q83.25 323.35 83.25 322.23L83.25 311.16L86.90 311.16L86.90 334.52L82 334.52L75.57 315.64Q75.63 316.57 75.73 317.88Q75.82 319.19 75.89 320.57Q75.95 321.94 75.95 323.10L75.95 334.52M98.80 334.84Q96.46 334.84 94.67 333.96Q92.88 333.08 91.89 331.53Q90.90 329.98 90.90 327.93Q90.90 325.78 92.13 324.18Q93.36 322.58 95.34 322.17L95.34 322.10Q93.65 321.75 92.61 320.38Q91.57 319 91.57 317.11Q91.57 315.26 92.48 313.85Q93.39 312.44 95.02 311.64Q96.66 310.84 98.80 310.84Q100.94 310.84 102.59 311.64Q104.24 312.44 105.15 313.85Q106.06 315.26 106.06 317.11Q106.06 319 105.01 320.38Q103.95 321.75 102.26 322.10L102.26 322.17Q104.24 322.58 105.47 324.18Q106.70 325.78 106.70 327.93Q106.70 329.98 105.71 331.53Q104.72 333.08 102.93 333.96Q101.14 334.84 98.80 334.84M98.80 320.73Q100.30 320.73 101.23 319.82Q102.16 318.90 102.16 317.46Q102.16 315.99 101.23 315.08Q100.30 314.17 98.80 314.17Q97.30 314.17 96.37 315.08Q95.44 315.99 95.44 317.46Q95.44 318.90 96.37 319.82Q97.30 320.73 98.80 320.73M98.80 331.45Q100.56 331.45 101.68 330.42Q102.80 329.40 102.80 327.74Q102.80 326.04 101.68 325Q100.56 323.96 98.80 323.96Q97.04 323.96 95.92 325Q94.80 326.04 94.80 327.74Q94.80 329.40 95.92 330.42Q97.04 331.45 98.80 331.45M114.35 334.52L110.70 334.52L110.70 311.16L115.60 311.16L122.10 330.04Q122 329.02 121.90 327.62Q121.81 326.23 121.73 324.79Q121.65 323.35 121.65 322.23L121.65 311.16L125.30 311.16L125.30 334.52L120.40 334.52L113.97 315.64Q114.03 316.57 114.13 317.88Q114.22 319.19 114.29 320.57Q114.35 321.94 114.35 323.10" fill="white" fill-opacity="0.9"/>
<path d="M161.48 325.24L151.24 325.24L151.24 322.68L161.48 322.68" fill="white" fill-opacity="0.9"/>
<path d="M195.02 334.84Q191.82 334.84 189.96 333.05Q188.11 331.26 188.11 328.12L188.11 317.56Q188.11 314.42 189.96 312.63Q191.82 310.84 195.02 310.84Q198.15 310.84 200.01 312.65Q201.87 314.46 201.87 317.56L198.99 317.56Q198.99 315.58 197.95 314.50Q196.91 313.43 195.02 313.43Q193.13 313.43 192.06 314.50Q190.99 315.58 190.99 317.56L190.99 328.12Q190.99 330.10 192.06 331.18Q193.13 332.25 195.02 332.25Q196.91 332.25 197.95 331.18Q198.99 330.10 198.99 328.12L201.87 328.12Q201.87 331.22 200.01 333.03Q198.15 334.84 195.02 334.84" fill="white" fill-opacity="0.9"/>
<path d="M213.96 334.84Q210.83 334.84 209 333.02Q207.18 331.19 207.18 327.80L207.18 317.88Q207.18 314.49 209 312.66Q210.83 310.84 213.96 310.84Q217.10 310.84 218.92 312.66Q220.75 314.49 220.75 317.85L220.75 327.80Q220.75 331.19 218.92 333.02Q217.10 334.84 213.96 334.84M213.96 332.25Q215.85 332.25 216.86 331.18Q217.87 330.10 217.87 328.12L217.87 317.56Q217.87 315.58 216.86 314.50Q215.85 313.43 213.96 313.43Q212.11 313.43 211.08 314.50Q210.06 315.58 210.06 317.56L210.06 328.12Q210.06 330.10 211.08 331.18Q212.11 332.25 213.96 332.25" fill="white" fill-opacity="0.9"/>
<path d="M228.65 334.52L225.87 334.52L225.87 311.16L230.12 311.16L233.10 321.27L236.20 311.16L240.46 311.16L240.46 334.52L237.67 334.52L237.67 323.48Q237.67 321.91 237.72 319.88Q237.77 317.85 237.87 315.77Q237.96 313.69 238.09 312.02L234.31 324.09L231.82 324.09L228.20 312.31Q228.46 314.68 228.55 317.50Q228.65 320.31 228.65 323.48" fill="white" fill-opacity="0.9"/>
<path d="M247.85 334.52L245.07 334.52L245.07 311.16L249.32 311.16L252.30 321.27L255.40 311.16L259.66 311.16L259.66 334.52L256.87 334.52L256.87 323.48Q256.87 321.91 256.92 319.88Q256.97 317.85 257.07 315.77Q257.16 313.69 257.29 312.02L253.51 324.09L251.02 324.09L247.40 312.31Q247.66 314.68 247.75 317.50Q247.85 320.31 247.85 323.48" fill="white" fill-opacity="0.9"/>
<path d="M271.56 334.84Q268.30 334.84 266.57 333.03Q264.84 331.22 264.84 328.12L264.84 311.16L267.72 311.16L267.72 328.12Q267.72 330.04 268.67 331.16Q269.61 332.28 271.56 332.28Q273.48 332.28 274.44 331.16Q275.40 330.04 275.40 328.12L275.40 311.16L278.28 311.16L278.28 328.12Q278.28 331.26 276.57 333.05Q274.86 334.84 271.56 334.84" fill="white" fill-opacity="0.9"/>
<path d="M286.83 334.52L284.04 334.52L284.04 311.16L287.88 311.16L295.02 331.16Q294.95 330.36 294.87 329.19Q294.79 328.02 294.75 326.73Q294.70 325.43 294.70 324.28L294.70 311.16L297.48 311.16L297.48 334.52L293.64 334.52L286.54 314.52Q286.60 315.29 286.67 316.46Q286.73 317.62 286.78 318.92Q286.83 320.22 286.83 321.40" fill="white" fill-opacity="0.9"/>
<path d="M316.20 334.52L303.72 334.52L303.72 331.90L308.49 331.90L308.49 313.78L303.72 313.78L303.72 311.16L316.20 311.16L316.20 313.78L311.43 313.78L311.43 331.90L316.20 331.90" fill="white" fill-opacity="0.9"/>
<path d="M330.60 334.52L327.72 334.52L327.72 313.78L321.32 313.78L321.32 311.16L337 311.16L337 313.78L330.60 313.78" fill="white" fill-opacity="0.9"/>
<path d="M349.80 334.52L346.92 334.52L346.92 325.78L339.88 311.16L342.95 311.16L347.50 320.76Q347.88 321.56 348.11 322.12Q348.33 322.68 348.39 322.94Q348.46 322.68 348.70 322.12Q348.94 321.56 349.32 320.76L353.87 311.16L356.84 311.16L349.80 325.78" fill="white" fill-opacity="0.9"/>
<path d="M382.83 334.52L380.04 334.52L380.04 311.16L383.88 311.16L391.02 331.16Q390.95 330.36 390.87 329.19Q390.79 328.02 390.75 326.73Q390.70 325.43 390.70 324.28L390.70 311.16L393.48 311.16L393.48 334.52L389.64 334.52L382.54 314.52Q382.60 315.29 382.67 316.46Q382.73 317.62 382.78 318.92Q382.83 320.22 382.83 321.40" fill="white" fill-opacity="0.9"/>
<path d="M405.96 334.84Q402.83 334.84 401 333.02Q399.18 331.19 399.18 327.80L399.18 317.88Q399.18 314.49 401 312.66Q402.83 310.84 405.96 310.84Q409.10 310.84 410.92 312.66Q412.75 314.49 412.75 317.85L412.75 327.80Q412.75 331.19 410.92 333.02Q409.10 334.84 405.96 334.84M405.96 332.25Q407.85 332.25 408.86 331.18Q409.87 330.10 409.87 328.12L409.87 317.56Q409.87 315.58 408.86 314.50Q407.85 313.43 405.96 313.43Q404.11 313.43 403.08 314.50Q402.06 315.58 402.06 317.56L402.06 328.12Q402.06 330.10 403.08 331.18Q404.11 332.25 405.96 332.25" fill="white" fill-opacity="0.9"/>
<path d="M424.55 334.52L418.51 334.52L418.51 311.16L424.55 311.16Q426.83 311.16 428.47 312.02Q430.12 312.89 431.03 314.46Q431.95 316.02 431.95 318.17L431.95 327.48Q431.95 329.62 431.03 331.21Q430.12 332.79 428.47 333.66Q426.83 334.52 424.55 334.52M421.39 313.72L421.39 331.96L424.55 331.96Q426.67 331.96 427.87 330.78Q429.07 329.59 429.07 327.48L429.07 318.17Q429.07 316.09 427.87 314.90Q426.67 313.72 424.55 313.72" fill="white" fill-opacity="0.9"/>
<path d="M451.40 334.52L437.96 334.52L437.96 311.16L451.40 311.16L451.40 313.78L440.81 313.78L440.81 321.02L450.28 321.02L450.28 323.58L440.81 323.58L440.81 331.90L451.40 331.90" fill="white" fill-opacity="0.9"/>
<path d="M463.69 334.84Q460.30 334.84 458.28 333.05Q456.27 331.26 456.27 328.12L459.15 328.12Q459.15 330.07 460.39 331.18Q461.64 332.28 463.69 332.28Q465.67 332.28 466.86 331.13Q468.04 329.98 468.04 328.12Q468.04 326.71 467.29 325.67Q466.54 324.63 465.13 324.25L461.58 323.26Q459.37 322.62 458.11 320.97Q456.84 319.32 456.84 317.08Q456.84 315.22 457.67 313.82Q458.51 312.41 460.01 311.62Q461.51 310.84 463.47 310.84Q465.45 310.84 466.97 311.62Q468.49 312.41 469.35 313.80Q470.22 315.19 470.22 317.02L467.34 317.02Q467.34 315.42 466.25 314.41Q465.16 313.40 463.47 313.40Q461.77 313.40 460.71 314.41Q459.66 315.42 459.66 317.02Q459.66 318.30 460.35 319.21Q461.03 320.12 462.28 320.47L465.93 321.50Q468.27 322.14 469.56 323.91Q470.86 325.69 470.86 328.12Q470.86 331.19 468.91 333.02Q466.95 334.84 463.69 334.84" fill="white" fill-opacity="0.9"/>
</g>
<path d="M77.20 197.88Q74.75 197.88 73.46 196.52Q72.16 195.17 72.16 192.84L72.16 180.12L74.32 180.12L74.32 192.84Q74.32 194.28 75.03 195.12Q75.74 195.96 77.20 195.96Q78.64 195.96 79.36 195.12Q80.08 194.28 80.08 192.84L80.08 180.12L82.24 180.12L82.24 192.84Q82.24 195.19 80.96 196.54Q79.67 197.88 77.20 197.88" fill="white" fill-opacity="0.7"/>
<path d="M92.13 197.83L91.07 197.83Q88.86 197.83 87.65 196.84Q86.44 195.84 86.44 194.02L88.60 194.02Q88.60 194.93 89.25 195.44Q89.90 195.96 91.07 195.96L92.13 195.96Q93.33 195.96 93.99 195.43Q94.65 194.90 94.65 193.94Q94.65 192.24 93.09 192.02L89.44 191.50Q88.10 191.30 87.35 190.38Q86.61 189.46 86.61 187.94Q86.61 186.22 87.80 185.23Q88.98 184.25 91.07 184.25L92.13 184.25Q94.05 184.25 95.26 185.20Q96.47 186.14 96.57 187.68L94.38 187.68Q94.34 186.98 93.72 186.53Q93.11 186.07 92.13 186.07L91.07 186.07Q89.97 186.07 89.34 186.58Q88.72 187.08 88.72 187.94Q88.72 189.34 89.99 189.53L93.40 190.01Q96.76 190.49 96.76 193.94Q96.76 195.79 95.55 196.81Q94.34 197.83 92.13 197.83" fill="white" fill-opacity="0.7"/>
<path d="MNaN 197.88Q103.67 197.88 102.24 196.48Q100.82 195.07 100.82 192.60L100.82 189.48Q100.82 187.01 102.24 185.60Q103.67 184.20 NaN 184.20Q107.56 184.20 108.72 184.82Q109.89 185.45 110.54 186.58Q111.18 187.70 111.18 189.24L111.18 191.59L102.93 191.59L102.93 192.84Q102.93 194.30 103.77 195.16Q104.61 196.01 NaN 196.01Q107.20 196.01 107.98 195.54Q108.76 195.07 108.93 194.28L111.09 194.28Q110.87 195.94 109.48 196.91Q108.09 197.88 NaN 197.88M102.93 189.24L102.93 189.91L109.07 189.91L109.07 189.24Q109.07 187.68 108.27 186.83Q107.46 185.98 NaN 185.98Q104.54 185.98 103.73 186.83Q102.93 187.68 102.93 189.24" fill="white" fill-opacity="0.7"/>
<path d="M139.96 197.64L136.12 197.64Q134.49 197.64 133.50 196.69Q132.52 195.74 132.52 194.16L132.52 186.41L128.73 186.41L128.73 184.44L132.52 184.44L132.52 180.72L134.68 180.72L134.68 184.44L140.08 184.44L140.08 186.41L134.68 186.41L134.68 194.16Q134.68 194.83 135.08 195.25Q135.47 195.67 136.12 195.67L139.96 195.67" fill="white" fill-opacity="0.7"/>
<path d="M146.37 197.64L144.21 197.64L144.21 180.12L146.37 180.12L146.37 186.96L146.39 186.96Q146.56 185.64 147.47 184.92Q148.38 184.20 149.90 184.20Q151.89 184.20 153.06 185.42Q154.24 186.65 154.24 188.76L154.24 197.64L152.08 197.64L152.08 189.12Q152.08 187.63 151.32 186.83Q150.57 186.02 149.27 186.02Q147.93 186.02 147.15 186.86Q146.37 187.70 146.37 189.24" fill="white" fill-opacity="0.7"/>
<path d="M163.60 197.88Q161.27 197.88 159.84 196.48Q158.42 195.07 158.42 192.60L158.42 189.48Q158.42 187.01 159.84 185.60Q161.27 184.20 163.60 184.20Q165.16 184.20 166.32 184.82Q167.49 185.45 168.14 186.58Q168.78 187.70 168.78 189.24L168.78 191.59L160.53 191.59L160.53 192.84Q160.53 194.30 161.37 195.16Q162.21 196.01 163.60 196.01Q164.80 196.01 165.58 195.54Q166.36 195.07 166.53 194.28L168.69 194.28Q168.47 195.94 167.08 196.91Q165.69 197.88 163.60 197.88M160.53 189.24L160.53 189.91L166.67 189.91L166.67 189.24Q166.67 187.68 165.87 186.83Q165.06 185.98 163.60 185.98Q162.14 185.98 161.33 186.83Q160.53 187.68 160.53 189.24" fill="white" fill-opacity="0.7"/>
<path d="M192.59 197.88Q190.19 197.88 188.80 196.54Q187.41 195.19 187.41 192.84L187.41 184.92Q187.41 182.57 188.80 181.22Q190.19 179.88 192.59 179.88Q194.94 179.88 196.34 181.24Q197.73 182.59 197.73 184.92L195.57 184.92Q195.57 183.43 194.79 182.63Q194.01 181.82 192.59 181.82Q191.18 181.82 190.37 182.63Q189.57 183.43 189.57 184.92L189.57 192.84Q189.57 194.33 190.37 195.13Q191.18 195.94 192.59 195.94Q194.01 195.94 194.79 195.13Q195.57 194.33 195.57 192.84L197.73 192.84Q197.73 195.17 196.34 196.52Q194.94 197.88 192.59 197.88" fill="white" fill-opacity="0.7"/>
<path d="M206.80 197.83Q204.42 197.83 203.02 196.44Q201.62 195.05 201.62 192.55L201.62 189.53Q201.62 187.01 203.01 185.63Q204.40 184.25 206.80 184.25Q209.20 184.25 210.59 185.63Q211.98 187.01 211.98 189.53L211.98 192.55Q211.98 195.05 210.58 196.44Q209.18 197.83 206.80 197.83M206.80 195.91Q208.22 195.91 209.02 195.12Q209.82 194.33 209.82 192.79L209.82 189.29Q209.82 187.75 209.02 186.96Q208.22 186.17 206.80 186.17Q205.41 186.17 204.59 186.96Q203.78 187.75 203.78 189.29L203.78 192.79Q203.78 194.33 204.59 195.12Q205.41 195.91 206.80 195.91" fill="white" fill-opacity="0.7"/>
<path d="M218.37 197.64L216.21 197.64L216.21 184.44L218.37 184.44L218.37 186.96L218.39 186.96Q218.56 185.64 219.47 184.92Q220.38 184.20 221.90 184.20Q223.89 184.20 225.06 185.42Q226.24 186.65 226.24 188.76L226.24 197.64L224.08 197.64L224.08 189.14Q224.08 187.63 223.32 186.83Q222.57 186.02 221.27 186.02Q219.93 186.02 219.15 186.86Q218.37 187.70 218.37 189.24" fill="white" fill-opacity="0.7"/>
<path d="M240.76 197.64L236.92 197.64Q235.29 197.64 234.30 196.69Q233.32 195.74 233.32 194.16L233.32 186.41L229.53 186.41L229.53 184.44L233.32 184.44L233.32 180.72L235.48 180.72L235.48 184.44L240.88 184.44L240.88 186.41L235.48 186.41L235.48 194.16Q235.48 194.83 235.88 195.25Q236.27 195.67 236.92 195.67L240.76 195.67" fill="white" fill-opacity="0.7"/>
<path d="M247.65 197.64L245.49 197.64L245.49 184.44L247.65 184.44L247.65 186.96L247.70 186.96Q247.86 185.69 248.78 184.94Q249.69 184.20 251.22 184.20Q253.29 184.20 254.40 185.44Q255.52 186.67 255.52 188.95L255.52 190.08L253.36 190.08L253.36 188.95Q253.36 186.07 250.55 186.07Q249.14 186.07 248.39 186.89Q247.65 187.70 247.65 189.24" fill="white" fill-opacity="0.7"/>
<path d="M264.40 197.83Q262.02 197.83 260.62 196.44Q259.22 195.05 259.22 192.55L259.22 189.53Q259.22 187.01 260.61 185.63QNaN 184.25 264.40 184.25Q266.80 184.25 268.19 185.63Q269.58 187.01 269.58 189.53L269.58 192.55Q269.58 195.05 268.18 196.44Q266.78 197.83 264.40 197.83M264.40 195.91Q265.82 195.91 266.62 195.12Q267.42 194.33 267.42 192.79L267.42 189.29Q267.42 187.75 266.62 186.96Q265.82 186.17 264.40 186.17Q263.01 186.17 262.19 186.96Q261.38 187.75 261.38 189.29L261.38 192.79Q261.38 194.33 262.19 195.12Q263.01 195.91 264.40 195.91" fill="white" fill-opacity="0.7"/>
<path d="M284.80 197.64L280.72 197.64Q278.97 197.64 277.92 196.62Q276.88 195.60 276.88 193.92L276.88 182.09L272.32 182.09L272.32 180.12L279.04 180.12L279.04 193.92Q279.04 194.74 279.50 195.20Q279.95 195.67 280.72 195.67L284.80 195.67" fill="white" fill-opacity="0.7"/>
<path d="M303.81 197.64L301.60 197.64L306.16 180.12L309.06 180.12L313.60 197.64L311.42 197.64L310.26 192.98L304.96 192.98L303.81 197.64M306.74 185.74L305.39 191.16L309.81 191.16L308.46 185.76Q308.08 184.22 307.86 183.19Q307.65 182.16 307.60 181.85Q307.55 182.16 307.34 183.19Q307.12 184.22 306.74 185.74" fill="white" fill-opacity="0.7"/>
<path d="M319.17 197.64L317.01 197.64L317.01 180.12L322.65 180.12Q325.10 180.12 326.55 181.52Q328 182.93 328 185.28Q328 187.63 326.55 189.04Q325.10 190.44 322.65 190.44L319.17 190.44L319.17 197.64M319.17 182.06L319.17 188.50L322.65 188.50Q324.06 188.50 324.92 187.62Q325.77 186.74 325.77 185.28Q325.77 183.79 324.92 182.93Q324.06 182.06 322.65 182.06" fill="white" fill-opacity="0.7"/>
<path d="M341.08 197.64L331.72 197.64L331.72 195.67L335.30 195.67L335.30 182.09L331.72 182.09L331.72 180.12L341.08 180.12L341.08 182.09L337.50 182.09L337.50 195.67L341.08 195.67" fill="white" fill-opacity="0.7"/>
<path d="M370.36 197.64L366.52 197.64Q364.89 197.64 363.90 196.69Q362.92 195.74 362.92 194.16L362.92 186.41L359.13 186.41L359.13 184.44L362.92 184.44L362.92 180.72L365.08 180.72L365.08 184.44L370.48 184.44L370.48 186.41L365.08 186.41L365.08 194.16Q365.08 194.83 365.48 195.25Q365.87 195.67 366.52 195.67L370.36 195.67" fill="white" fill-opacity="0.7"/>
<path d="M379.60 197.83Q377.22 197.83 375.82 196.44Q374.42 195.05 374.42 192.55L374.42 189.53Q374.42 187.01 375.81 185.63Q377.20 184.25 379.60 184.25Q382 184.25 383.39 185.63Q384.78 187.01 384.78 189.53L384.78 192.55Q384.78 195.05 383.38 196.44Q381.98 197.83 379.60 197.83M379.60 195.91Q381.02 195.91 381.82 195.12Q382.62 194.33 382.62 192.79L382.62 189.29Q382.62 187.75 381.82 186.96Q381.02 186.17 379.60 186.17Q378.21 186.17 377.39 186.96Q376.58 187.75 376.58 189.29L376.58 192.79Q376.58 194.33 377.39 195.12Q378.21 195.91 379.60 195.91" fill="white" fill-opacity="0.7"/>
<path d="M404.66 197.64L402.64 197.64L402.64 184.44L404.51 184.44L404.51 186.19L404.56 186.19Q404.68 185.30 405.27 184.75Q405.86 184.20 406.77 184.20Q407.63 184.20 408.23 184.70Q408.83 185.21 409.10 186.07L409.12 186.07Q409.29 185.21 409.88 184.70Q410.46 184.20 411.38 184.20Q412.65 184.20 413.40 185.15Q414.16 186.10 414.16 187.61L414.16 197.64L412.14 197.64L412.14 187.58Q412.14 186.79 411.76 186.32Q411.38 185.86 410.70 185.86Q410.06 185.86 409.67 186.31Q409.29 186.77 409.29 187.56L409.29 197.64L407.51 197.64L407.51 187.58Q407.51 186.79 407.13 186.32Q406.74 185.86 406.10 185.86Q405.42 185.86 405.04 186.31Q404.66 186.77 404.66 187.56" fill="white" fill-opacity="0.7"/>
<path d="M421.65 197.88Q419.61 197.88 418.41 196.74Q417.21 195.60 417.21 193.75Q417.21 192.53 417.76 191.62Q418.31 190.70 419.30 190.19Q420.28 189.67 421.55 189.67L425.63 189.67L425.63 188.64Q425.63 186.07 422.82 186.07Q421.58 186.07 420.81 186.53Q420.04 186.98 419.99 187.80L417.83 187.80Q417.95 186.24 419.28 185.22Q420.62 184.20 422.82 184.20Q425.22 184.20 426.51 185.35Q427.79 186.50 427.79 188.57L427.79 197.64L425.66 197.64L425.66 195.24L425.61 195.24Q425.42 196.46 424.38 197.17Q423.35 197.88 421.65 197.88M422.18 196.06Q423.76 196.06 424.70 195.29Q425.63 194.52 425.63 193.20L425.63 191.35L421.79 191.35Q420.74 191.35 420.08 191.99Q419.42 192.62 419.42 193.68Q419.42 194.78 420.15 195.42Q420.88 196.06 422.18 196.06" fill="white" fill-opacity="0.7"/>
<path d="M434.37 197.64L432.21 197.64L432.21 184.44L434.37 184.44L434.37 186.96L434.39 186.96Q434.56 185.64 435.47 184.92Q436.38 184.20 437.90 184.20Q439.89 184.20 441.06 185.42Q442.24 186.65 442.24 188.76L442.24 197.64L440.08 197.64L440.08 189.14Q440.08 187.63 439.32 186.83Q438.57 186.02 437.27 186.02Q435.93 186.02 435.15 186.86Q434.37 187.70 434.37 189.24" fill="white" fill-opacity="0.7"/>
<path d="M450.45 197.88Q448.41 197.88 447.21 196.74Q446.01 195.60 446.01 193.75Q446.01 192.53 446.56 191.62Q447.11 190.70 448.10 190.19Q449.08 189.67 450.35 189.67L454.43 189.67L454.43 188.64Q454.43 186.07 451.62 186.07Q450.38 186.07 449.61 186.53Q448.84 186.98 448.79 187.80L446.63 187.80Q446.75 186.24 448.08 185.22Q449.42 184.20 451.62 184.20Q454.02 184.20 455.31 185.35Q456.59 186.50 456.59 188.57L456.59 197.64L454.46 197.64L454.46 195.24L454.41 195.24Q454.22 196.46 453.18 197.17Q452.15 197.88 450.45 197.88M450.98 196.06Q452.56 196.06 453.50 195.29Q454.43 194.52 454.43 193.20L454.43 191.35L450.59 191.35Q449.54 191.35 448.88 191.99Q448.22 192.62 448.22 193.68Q448.22 194.78 448.95 195.42Q449.68 196.06 450.98 196.06" fill="white" fill-opacity="0.7"/>
<path d="M466.36 201.96L462.66 201.96L462.66 199.99L466.38 199.99Q467.51 199.99 468.16 199.36Q468.81 198.72 468.81 197.64L468.81 196.44L468.86 194.28L468.78 194.28Q468.59 195.46 467.66 196.09Q466.72 196.73 465.30 196.73Q463.26 196.73 462.09 195.43Q460.91 194.14 460.91 191.88L460.91 189.10Q460.91 186.84 462.09 185.52Q463.26 184.20 465.30 184.20Q466.72 184.20 467.66 184.87Q468.59 185.54 468.78 186.72L468.83 186.72L468.83 184.44L470.97 184.44L470.97 197.64Q470.97 199.63 469.73 200.80Q468.50 201.96 466.36 201.96M465.95 194.93Q467.30 194.93 468.06 194.09Q468.83 193.25 468.83 191.76L468.83 189.24Q468.83 187.75 468.06 186.91Q467.30 186.07 465.95 186.07Q464.58 186.07 463.83 186.86Q463.07 187.66 463.07 189L463.07 192Q463.07 193.34 463.83 194.14Q464.58 194.93 465.95 194.93" fill="white" fill-opacity="0.7"/>
<path d="M480.40 197.88Q478.07 197.88 476.64 196.48Q475.22 195.07 475.22 192.60L475.22 189.48Q475.22 187.01 476.64 185.60Q478.07 184.20 480.40 184.20Q481.96 184.20 483.12 184.82Q484.29 185.45 484.94 186.58Q485.58 187.70 485.58 189.24L485.58 191.59L477.33 191.59L477.33 192.84Q477.33 194.30 478.17 195.16Q479.01 196.01 480.40 196.01Q481.60 196.01 482.38 195.54Q483.16 195.07 483.33 194.28L485.49 194.28Q485.27 195.94 483.88 196.91Q482.49 197.88 480.40 197.88M477.33 189.24L477.33 189.91L483.47 189.91L483.47 189.24Q483.47 187.68 482.67 186.83Q481.86 185.98 480.40 185.98Q478.94 185.98 478.13 186.83Q477.33 187.68 477.33 189.24" fill="white" fill-opacity="0.7"/>
<path d="M508.53 201.96L506.27 201.96L508.22 196.82L503.30 184.44L505.62 184.44L508.74 192.60Q508.94 193.08 509.10 193.61Q509.27 194.14 509.34 194.52Q509.42 194.14 509.58 193.61Q509.75 193.08 509.92 192.60L512.82 184.44L515.10 184.44" fill="white" fill-opacity="0.7"/>
<path d="M523.60 197.83Q521.22 197.83 519.82 196.44Q518.42 195.05 518.42 192.55L518.42 189.53Q518.42 187.01 519.81 185.63Q521.20 184.25 523.60 184.25Q526 184.25 527.39 185.63Q528.78 187.01 528.78 189.53L528.78 192.55Q528.78 195.05 527.38 196.44Q525.98 197.83 523.60 197.83M523.60 195.91Q525.02 195.91 525.82 195.12Q526.62 194.33 526.62 192.79L526.62 189.29Q526.62 187.75 525.82 186.96Q525.02 186.17 523.60 186.17Q522.21 186.17 521.39 186.96Q520.58 187.75 520.58 189.29L520.58 192.79Q520.58 194.33 521.39 195.12Q522.21 195.91 523.60 195.91" fill="white" fill-opacity="0.7"/>
<path d="M537.98 197.88Q535.70 197.88 534.33 196.52Q532.96 195.17 532.96 192.84L532.96 184.44L535.12 184.44L535.12 192.84Q535.12 194.28 535.89 195.13Q536.66 195.98 537.98 195.98Q539.32 195.98 540.10 195.13Q540.88 194.28 540.88 192.84L540.88 184.44L543.04 184.44L543.04 192.84Q543.04 195.17 541.65 196.52Q540.26 197.88 537.98 197.88" fill="white" fill-opacity="0.7"/>
<path d="M550.05 197.64L547.89 197.64L547.89 184.44L550.05 184.44L550.05 186.96L550.10 186.96Q550.26 185.69 551.18 184.94Q552.09 184.20 553.62 184.20Q555.69 184.20 556.80 185.44Q557.92 186.67 557.92 188.95L557.92 190.08L555.76 190.08L555.76 188.95Q555.76 186.07 552.95 186.07Q551.54 186.07 550.79 186.89Q550.05 187.70 550.05 189.24" fill="white" fill-opacity="0.7"/>
<path d="M580.05 197.88Q578.01 197.88 576.81 196.74Q575.61 195.60 575.61 193.75Q575.61 192.53 576.16 191.62Q576.71 190.70 577.70 190.19Q578.68 189.67 579.95 189.67L584.03 189.67L584.03 188.64Q584.03 186.07 581.22 186.07Q579.98 186.07 579.21 186.53Q578.44 186.98 578.39 187.80L576.23 187.80Q576.35 186.24 577.68 185.22Q579.02 184.20 581.22 184.20Q583.62 184.20 584.91 185.35Q586.19 186.50 586.19 188.57L586.19 197.64L584.06 197.64L584.06 195.24L584.01 195.24Q583.82 196.46 582.78 197.17Q581.75 197.88 580.05 197.88M580.58 196.06Q582.16 196.06 583.10 195.29Q584.03 194.52 584.03 193.20L584.03 191.35L580.19 191.35Q579.14 191.35 578.48 191.99Q577.82 192.62 577.82 193.68Q577.82 194.78 578.55 195.42Q579.28 196.06 580.58 196.06" fill="white" fill-opacity="0.7"/>
<path d="M592.77 201.96L590.61 201.96L590.61 184.44L592.77 184.44L592.77 186.96L592.79 186.96Q592.96 185.66 593.92 184.93Q594.88 184.20 596.37 184.20Q598.36 184.20 599.54 185.51Q600.71 186.82 600.71 189.10L600.71 192.96Q600.71 195.24 599.54 196.56Q598.36 197.88 596.37 197.88Q594.88 197.88 593.92 197.14Q592.96 196.39 592.79 195.12L592.72 195.12L592.77 198.12L592.77 201.96M595.65 196.01Q597.02 196.01 597.78 195.29Q598.55 194.57 598.55 192.96L598.55 189.12Q598.55 187.49 597.78 186.78Q597.02 186.07 595.65 186.07Q594.33 186.07 593.55 186.91Q592.77 187.75 592.77 189.24L592.77 192.84Q592.77 194.33 593.55 195.17Q594.33 196.01 595.65 196.01" fill="white" fill-opacity="0.7"/>
<path d="M607.17 201.96L605.01 201.96L605.01 184.44L607.17 184.44L607.17 186.96L607.19 186.96Q607.36 185.66 608.32 184.93Q609.28 184.20 610.77 184.20Q612.76 184.20 613.94 185.51Q615.11 186.82 615.11 189.10L615.11 192.96Q615.11 195.24 613.94 196.56Q612.76 197.88 610.77 197.88Q609.28 197.88 608.32 197.14Q607.36 196.39 607.19 195.12L607.12 195.12L607.17 198.12L607.17 201.96M610.05 196.01Q611.42 196.01 612.18 195.29Q612.95 194.57 612.95 192.96L612.95 189.12Q612.95 187.49 612.18 186.78Q611.42 186.07 610.05 186.07Q608.73 186.07 607.95 186.91Q607.17 187.75 607.17 189.24L607.17 192.84Q607.17 194.33 607.95 195.17Q608.73 196.01 610.05 196.01" fill="white" fill-opacity="0.7"/>
<path d="M630.40 197.64L626.32 197.64Q624.57 197.64 623.52 196.62Q622.48 195.60 622.48 193.92L622.48 182.09L617.92 182.09L617.92 180.12L624.64 180.12L624.64 193.92Q624.64 194.74 625.10 195.20Q625.55 195.67 626.32 195.67L630.40 195.67" fill="white" fill-opacity="0.7"/>
<path d="M644.92 197.64L633.64 197.64L633.64 195.67L638.32 195.67L638.32 186.41L634.12 186.41L634.12 184.44L640.48 184.44L640.48 195.67L644.92 195.67L644.92 197.64M639.16 182.06Q638.37 182.06 637.91 181.66Q637.46 181.25 637.46 180.55Q637.46 179.83 637.91 179.41Q638.37 178.99 639.16 178.99Q639.95 178.99 640.41 179.41Q640.86 179.83 640.86 180.55Q640.86 181.25 640.41 181.66Q639.95 182.06 639.16 182.06" fill="white" fill-opacity="0.7"/>
<path d="M653.39 197.88Q650.99 197.88 649.55 196.54Q648.11 195.19 648.11 192.84L648.11 189.24Q648.11 186.89 649.55 185.54Q650.99 184.20 653.39 184.20Q655.67 184.20 657.08 185.42Q658.48 186.65 658.55 188.76L656.39 188.76Q656.32 187.49 655.53 186.80Q654.74 186.12 653.39 186.12Q651.98 186.12 651.12 186.92Q650.27 187.73 650.27 189.22L650.27 192.84Q650.27 194.33 651.12 195.14Q651.98 195.96 653.39 195.96Q654.74 195.96 655.53 195.26Q656.32 194.57 656.39 193.32L658.55 193.32Q658.48 195.43 657.08 196.66Q655.67 197.88 653.39 197.88" fill="white" fill-opacity="0.7"/>
<path d="M666.45 197.88Q664.41 197.88 663.21 196.74Q662.01 195.60 662.01 193.75Q662.01 192.53 662.56 191.62Q663.11 190.70 664.10 190.19Q665.08 189.67 666.35 189.67L670.43 189.67L670.43 188.64Q670.43 186.07 667.62 186.07Q666.38 186.07 665.61 186.53Q664.84 186.98 664.79 187.80L662.63 187.80Q662.75 186.24 664.08 185.22Q665.42 184.20 667.62 184.20Q670.02 184.20 671.31 185.35Q672.59 186.50 672.59 188.57L672.59 197.64L670.46 197.64L670.46 195.24L670.41 195.24Q670.22 196.46 669.18 197.17Q668.15 197.88 666.45 197.88M666.98 196.06Q668.56 196.06 669.50 195.29Q670.43 194.52 670.43 193.20L670.43 191.35L666.59 191.35Q665.54 191.35 664.88 191.99Q664.22 192.62 664.22 193.68Q664.22 194.78 664.95 195.42Q665.68 196.06 666.98 196.06" fill="white" fill-opacity="0.7"/>
<path d="M687.16 197.64L683.32 197.64Q681.69 197.64 680.70 196.69Q679.72 195.74 679.72 194.16L679.72 186.41L675.93 186.41L675.93 184.44L679.72 184.44L679.72 180.72L681.88 180.72L681.88 184.44L687.28 184.44L687.28 186.41L681.88 186.41L681.88 194.16Q681.88 194.83 682.28 195.25Q682.67 195.67 683.32 195.67L687.16 195.67" fill="white" fill-opacity="0.7"/>
<path d="M702.52 197.64L691.24 197.64L691.24 195.67L695.92 195.67L695.92 186.41L691.72 186.41L691.72 184.44L698.08 184.44L698.08 195.67L702.52 195.67L702.52 197.64M696.76 182.06Q695.97 182.06 695.51 181.66Q695.06 181.25 695.06 180.55Q695.06 179.83 695.51 179.41Q695.97 178.99 696.76 178.99Q697.55 178.99 698.01 179.41Q698.46 179.83 698.46 180.55Q698.46 181.25 698.01 181.66Q697.55 182.06 696.76 182.06" fill="white" fill-opacity="0.7"/>
<path d="M710.80 197.83Q708.42 197.83 707.02 196.44Q705.62 195.05 705.62 192.55L705.62 189.53Q705.62 187.01 707.01 185.63Q708.40 184.25 710.80 184.25Q713.20 184.25 714.59 185.63Q715.98 187.01 715.98 189.53L715.98 192.55Q715.98 195.05 714.58 196.44Q713.18 197.83 710.80 197.83M710.80 195.91Q712.22 195.91 713.02 195.12Q713.82 194.33 713.82 192.79L713.82 189.29Q713.82 187.75 713.02 186.96Q712.22 186.17 710.80 186.17Q709.41 186.17 708.59 186.96Q707.78 187.75 707.78 189.29L707.78 192.79Q707.78 194.33 708.59 195.12Q709.41 195.91 710.80 195.91" fill="white" fill-opacity="0.7"/>
<path d="M722.37 197.64L720.21 197.64L720.21 184.44L722.37 184.44L722.37 186.96L722.39 186.96Q722.56 185.64 723.47 184.92Q724.38 184.20 725.90 184.20Q727.89 184.20 729.06 185.42Q730.24 186.65 730.24 188.76L730.24 197.64L728.08 197.64L728.08 189.14Q728.08 187.63 727.32 186.83Q726.57 186.02 725.27 186.02Q723.93 186.02 723.15 186.86Q722.37 187.70 722.37 189.24" fill="white" fill-opacity="0.7"/>
<path d="M740.13 197.83L739.07 197.83Q736.86 197.83 735.65 196.84Q734.44 195.84 734.44 194.02L736.60 194.02Q736.60 194.93 737.25 195.44Q737.90 195.96 739.07 195.96L740.13 195.96Q741.33 195.96 741.99 195.43Q742.65 194.90 742.65 193.94Q742.65 192.24 741.09 192.02L737.44 191.50Q736.10 191.30 735.35 190.38Q734.61 189.46 734.61 187.94Q734.61 186.22 735.80 185.23Q736.98 184.25 739.07 184.25L740.13 184.25Q742.05 184.25 743.26 185.20Q744.47 186.14 744.57 187.68L742.38 187.68Q742.34 186.98 741.72 186.53Q741.11 186.07 740.13 186.07L739.07 186.07Q737.97 186.07 737.34 186.58Q736.72 187.08 736.72 187.94Q736.72 189.34 737.99 189.53L741.40 190.01Q744.76 190.49 744.76 193.94Q744.76 195.79 743.55 196.81Q742.34 197.83 740.13 197.83" fill="white" fill-opacity="0.7"/>
<path d="M754.07 201.48L751.84 201.48L753.16 194.14L755.75 194.14" fill="white" fill-opacity="0.7"/>
<path d="M779.97 197.64L777.81 197.64L777.81 184.44L779.97 184.44L779.97 186.96L779.99 186.96Q780.16 185.64 781.07 184.92Q781.98 184.20 783.50 184.20Q785.49 184.20 786.66 185.42Q787.84 186.65 787.84 188.76L787.84 197.64L785.68 197.64L785.68 189.14Q785.68 187.63 784.92 186.83Q784.17 186.02 782.87 186.02Q781.53 186.02 780.75 186.86Q779.97 187.70 779.97 189.24" fill="white" fill-opacity="0.7"/>
<path d="M796.05 197.88Q794.01 197.88 792.81 196.74Q791.61 195.60 791.61 193.75Q791.61 192.53 792.16 191.62Q792.71 190.70 793.70 190.19Q794.68 189.67 795.95 189.67L800.03 189.67L800.03 188.64Q800.03 186.07 797.22 186.07Q795.98 186.07 795.21 186.53Q794.44 186.98 794.39 187.80L792.23 187.80Q792.35 186.24 793.68 185.22Q795.02 184.20 797.22 184.20Q799.62 184.20 800.91 185.35Q802.19 186.50 802.19 188.57L802.19 197.64L800.06 197.64L800.06 195.24L800.01 195.24Q799.82 196.46 798.78 197.17Q797.75 197.88 796.05 197.88M796.58 196.06Q798.16 196.06 799.10 195.29Q800.03 194.52 800.03 193.20L800.03 191.35L796.19 191.35Q795.14 191.35 794.48 191.99Q793.82 192.62 793.82 193.68Q793.82 194.78 794.55 195.42Q795.28 196.06 796.58 196.06" fill="white" fill-opacity="0.7"/>
<path d="M807.86 197.64L805.84 197.64L805.84 184.44L807.71 184.44L807.71 186.19L807.76 186.19Q807.88 185.30 808.47 184.75Q809.06 184.20 809.97 184.20Q810.83 184.20 811.43 184.70Q812.03 185.21 812.30 186.07L812.32 186.07Q812.49 185.21 813.08 184.70Q813.66 184.20 814.58 184.20Q815.85 184.20 816.60 185.15Q817.36 186.10 817.36 187.61L817.36 197.64L815.34 197.64L815.34 187.58Q815.34 186.79 814.96 186.32Q814.58 185.86 813.90 185.86Q813.26 185.86 812.87 186.31Q812.49 186.77 812.49 187.56L812.49 197.64L810.71 197.64L810.71 187.58Q810.71 186.79 810.33 186.32Q809.94 185.86 809.30 185.86Q808.62 185.86 808.24 186.31Q807.86 186.77 807.86 187.56" fill="white" fill-opacity="0.7"/>
<path d="M826 197.88Q823.67 197.88 822.24 196.48Q820.82 195.07 820.82 192.60L820.82 189.48Q820.82 187.01 822.24 185.60Q823.67 184.20 826 184.20Q827.56 184.20 828.72 184.82Q829.89 185.45 830.54 186.58Q831.18 187.70 831.18 189.24L831.18 191.59L822.93 191.59L822.93 192.84Q822.93 194.30 823.77 195.16Q824.61 196.01 826 196.01Q827.20 196.01 827.98 195.54Q828.76 195.07 828.93 194.28L831.09 194.28Q830.87 195.94 829.48 196.91Q828.09 197.88 826 197.88M822.93 189.24L822.93 189.91L829.07 189.91L829.07 189.24Q829.07 187.68 828.27 186.83Q827.46 185.98 826 185.98Q824.54 185.98 823.73 186.83Q822.93 187.68 822.93 189.24" fill="white" fill-opacity="0.7"/>
<path d="M840.93 197.83L839.87 197.83Q837.66 197.83 836.45 196.84Q835.24 195.84 835.24 194.02L837.40 194.02Q837.40 194.93 838.05 195.44Q838.70 195.96 839.87 195.96L840.93 195.96Q842.13 195.96 842.79 195.43Q843.45 194.90 843.45 193.94Q843.45 192.24 841.89 192.02L838.24 191.50Q836.90 191.30 836.15 190.38Q835.41 189.46 835.41 187.94Q835.41 186.22 836.60 185.23Q837.78 184.25 839.87 184.25L840.93 184.25Q842.85 184.25 844.06 185.20Q845.27 186.14 845.37 187.68L843.18 187.68Q843.14 186.98 842.52 186.53Q841.91 186.07 840.93 186.07L839.87 186.07Q838.77 186.07 838.14 186.58Q837.52 187.08 837.52 187.94Q837.52 189.34 838.79 189.53L842.20 190.01Q845.56 190.49 845.56 193.94Q845.56 195.79 844.35 196.81Q843.14 197.83 840.93 197.83" fill="white" fill-opacity="0.7"/>
<path d="M851.97 201.96L849.81 201.96L849.81 184.44L851.97 184.44L851.97 186.96L851.99 186.96Q852.16 185.66 853.12 184.93Q854.08 184.20 855.57 184.20Q857.56 184.20 858.74 185.51Q859.91 186.82 859.91 189.10L859.91 192.96Q859.91 195.24 858.74 196.56Q857.56 197.88 855.57 197.88Q854.08 197.88 853.12 197.14Q852.16 196.39 851.99 195.12L851.92 195.12L851.97 198.12L851.97 201.96M854.85 196.01Q856.22 196.01 856.98 195.29Q857.75 194.57 857.75 192.96L857.75 189.12Q857.75 187.49 856.98 186.78Q856.22 186.07 854.85 186.07Q853.53 186.07 852.75 186.91Q851.97 187.75 851.97 189.24L851.97 192.84Q851.97 194.33 852.75 195.17Q853.53 196.01 854.85 196.01" fill="white" fill-opacity="0.7"/>
<path d="M868.05 197.88Q866.01 197.88 864.81 196.74Q863.61 195.60 863.61 193.75Q863.61 192.53 864.16 191.62Q864.71 190.70 865.70 190.19Q866.68 189.67 867.95 189.67L872.03 189.67L872.03 188.64Q872.03 186.07 869.22 186.07Q867.98 186.07 867.21 186.53Q866.44 186.98 866.39 187.80L864.23 187.80Q864.35 186.24 865.68 185.22Q867.02 184.20 869.22 184.20Q871.62 184.20 872.91 185.35Q874.19 186.50 874.19 188.57L874.19 197.64L872.06 197.64L872.06 195.24L872.01 195.24Q871.82 196.46 870.78 197.17Q869.75 197.88 868.05 197.88M868.58 196.06Q870.16 196.06 871.10 195.29Q872.03 194.52 872.03 193.20L872.03 191.35L868.19 191.35Q867.14 191.35 866.48 191.99Q865.82 192.62 865.82 193.68Q865.82 194.78 866.55 195.42Q867.28 196.06 868.58 196.06" fill="white" fill-opacity="0.7"/>
<path d="M883.79 197.88Q881.39 197.88 879.95 196.54Q878.51 195.19 878.51 192.84L878.51 189.24Q878.51 186.89 879.95 185.54Q881.39 184.20 883.79 184.20Q886.07 184.20 887.48 185.42Q888.88 186.65 888.95 188.76L886.79 188.76Q886.72 187.49 885.93 186.80Q885.14 186.12 883.79 186.12Q882.38 186.12 881.52 186.92Q880.67 187.73 880.67 189.22L880.67 192.84Q880.67 194.33 881.52 195.14Q882.38 195.96 883.79 195.96Q885.14 195.96 885.93 195.26Q886.72 194.57 886.79 193.32L888.95 193.32Q888.88 195.43 887.48 196.66Q886.07 197.88 883.79 197.88" fill="white" fill-opacity="0.7"/>
<path d="M898 197.88Q895.67 197.88 894.24 196.48Q892.82 195.07 892.82 192.60L892.82 189.48Q892.82 187.01 894.24 185.60Q895.67 184.20 898 184.20Q899.56 184.20 900.72 184.82Q901.89 185.45 902.54 186.58Q903.18 187.70 903.18 189.24L903.18 191.59L894.93 191.59L894.93 192.84Q894.93 194.30 895.77 195.16Q896.61 196.01 898 196.01Q899.20 196.01 899.98 195.54Q900.76 195.07 900.93 194.28L903.09 194.28Q902.87 195.94 901.48 196.91Q900.09 197.88 898 197.88M894.93 189.24L894.93 189.91L901.07 189.91L901.07 189.24Q901.07 187.68 900.27 186.83Q899.46 185.98 898 185.98Q896.54 185.98 895.73 186.83Q894.93 187.68 894.93 189.24" fill="white" fill-opacity="0.7"/>
<path d="M912.93 197.83L911.87 197.83Q909.66 197.83 908.45 196.84Q907.24 195.84 907.24 194.02L909.40 194.02Q909.40 194.93 910.05 195.44Q910.70 195.96 911.87 195.96L912.93 195.96Q914.13 195.96 914.79 195.43Q915.45 194.90 915.45 193.94Q915.45 192.24 913.89 192.02L910.24 191.50Q908.90 191.30 908.15 190.38Q907.41 189.46 907.41 187.94Q907.41 186.22 908.60 185.23Q909.78 184.25 911.87 184.25L912.93 184.25Q914.85 184.25 916.06 185.20Q917.27 186.14 917.37 187.68L915.18 187.68Q915.14 186.98 914.52 186.53Q913.91 186.07 912.93 186.07L911.87 186.07Q910.77 186.07 910.14 186.58Q909.52 187.08 909.52 187.94Q909.52 189.34 910.79 189.53L914.20 190.01Q917.56 190.49 917.56 193.94Q917.56 195.79 916.35 196.81Q915.14 197.83 912.93 197.83" fill="white" fill-opacity="0.7"/>
<path d="M926.87 201.48L924.64 201.48L925.96 194.14L928.55 194.14" fill="white" fill-opacity="0.7"/>
<path d="M952.89 197.64L950.73 197.64L950.73 180.12L952.89 180.12L952.89 189.89L955.41 189.89L959.10 184.44L961.58 184.44L957.33 190.73L961.82 197.64L959.30 197.64L955.46 191.76L952.89 191.76" fill="white" fill-opacity="0.7"/>
<path d="M970 197.88Q967.67 197.88 966.24 196.48Q964.82 195.07 964.82 192.60L964.82 189.48Q964.82 187.01 966.24 185.60Q967.67 184.20 970 184.20Q971.56 184.20 972.72 184.82Q973.89 185.45 974.54 186.58Q975.18 187.70 975.18 189.24L975.18 191.59L966.93 191.59L966.93 192.84Q966.93 194.30 967.77 195.16Q968.61 196.01 970 196.01Q971.20 196.01 971.98 195.54Q972.76 195.07 972.93 194.28L975.09 194.28Q974.87 195.94 973.48 196.91Q972.09 197.88 970 197.88M966.93 189.24L966.93 189.91L973.07 189.91L973.07 189.24Q973.07 187.68 972.27 186.83Q971.46 185.98 970 185.98Q968.54 185.98 967.73 186.83Q966.93 187.68 966.93 189.24" fill="white" fill-opacity="0.7"/>
<path d="M983.73 201.96L981.47 201.96L983.42 196.82L978.50 184.44L980.82 184.44L983.94 192.60Q984.14 193.08 984.30 193.61Q984.47 194.14 984.54 194.52Q984.62 194.14 984.78 193.61Q984.95 193.08 985.12 192.60L988.02 184.44L990.30 184.44" fill="white" fill-opacity="0.7"/>
<path d="M999.33 197.83L998.27 197.83Q996.06 197.83 994.85 196.84Q993.64 195.84 993.64 194.02L995.80 194.02Q995.80 194.93 996.45 195.44Q997.10 195.96 998.27 195.96L999.33 195.96Q1000.53 195.96 1001.19 195.43Q1001.85 194.90 1001.85 193.94Q1001.85 192.24 1000.29 192.02L996.64 191.50Q995.30 191.30 994.55 190.38Q993.81 189.46 993.81 187.94Q993.81 186.22 995 185.23Q996.18 184.25 998.27 184.25L999.33 184.25Q1001.25 184.25 1002.46 185.20Q1003.67 186.14 1003.77 187.68L1001.58 187.68Q1001.54 186.98 1000.92 186.53Q1000.31 186.07 999.33 186.07L998.27 186.07Q997.17 186.07 996.54 186.58Q995.92 187.08 995.92 187.94Q995.92 189.34 997.19 189.53L1000.60 190.01Q1003.96 190.49 1003.96 193.94Q1003.96 195.79 1002.75 196.81Q1001.54 197.83 999.33 197.83" fill="white" fill-opacity="0.7"/>
<path d="M1013.27 201.48L1011.04 201.48L1012.36 194.14L1014.95 194.14" fill="white" fill-opacity="0.7"/>
<path d="M1046.99 201.96L1044.83 201.96L1044.83 198.12L1044.88 195.12L1044.81 195.12Q1044.64 196.39 1043.68 197.14Q1042.72 197.88 1041.23 197.88Q1039.24 197.88 1038.06 196.56Q1036.89 195.24 1036.89 192.96L1036.89 189.10Q1036.89 186.82 1038.08 185.51Q1039.26 184.20 1041.23 184.20Q1042.72 184.20 1043.68 184.93Q1044.64 185.66 1044.81 186.96L1044.83 186.96L1044.83 184.44L1046.99 184.44L1046.99 201.96M1041.95 196.01Q1043.30 196.01 1044.06 195.17Q1044.83 194.33 1044.83 192.84L1044.83 189.24Q1044.83 187.75 1044.06 186.91Q1043.30 186.07 1041.95 186.07Q1040.58 186.07 1039.82 186.77Q1039.05 187.46 1039.05 189L1039.05 193.08Q1039.05 194.62 1039.82 195.31Q1040.58 196.01 1041.95 196.01" fill="white" fill-opacity="0.7"/>
<path d="M1056.38 197.88Q1054.10 197.88 1052.73 196.52Q1051.36 195.17 1051.36 192.84L1051.36 184.44L1053.52 184.44L1053.52 192.84Q1053.52 194.28 1054.29 195.13Q1055.06 195.98 1056.38 195.98Q1057.72 195.98 1058.50 195.13Q1059.28 194.28 1059.28 192.84L1059.28 184.44L1061.44 184.44L1061.44 192.84Q1061.44 195.17 1060.05 196.52Q1058.66 197.88 1056.38 197.88" fill="white" fill-opacity="0.7"/>
<path d="M1070.80 197.88Q1068.47 197.88 1067.04 196.48Q1065.62 195.07 1065.62 192.60L1065.62 189.48Q1065.62 187.01 1067.04 185.60Q1068.47 184.20 1070.80 184.20Q1072.36 184.20 1073.52 184.82Q1074.69 185.45 1075.34 186.58Q1075.98 187.70 1075.98 189.24L1075.98 191.59L1067.73 191.59L1067.73 192.84Q1067.73 194.30 1068.57 195.16Q1069.41 196.01 1070.80 196.01Q1072 196.01 1072.78 195.54Q1073.56 195.07 1073.73 194.28L1075.89 194.28Q1075.67 195.94 1074.28 196.91Q1072.89 197.88 1070.80 197.88M1067.73 189.24L1067.73 189.91L1073.87 189.91L1073.87 189.24Q1073.87 187.68 1073.07 186.83Q1072.26 185.98 1070.80 185.98Q1069.34 185.98 1068.53 186.83Q1067.73 187.68 1067.73 189.24" fill="white" fill-opacity="0.7"/>
<path d="M1085.18 197.88Q1082.90 197.88 1081.53 196.52Q1080.16 195.17 1080.16 192.84L1080.16 184.44L1082.32 184.44L1082.32 192.84Q1082.32 194.28 1083.09 195.13Q1083.86 195.98 1085.18 195.98Q1086.52 195.98 1087.30 195.13Q1088.08 194.28 1088.08 192.84L1088.08 184.44L1090.24 184.44L1090.24 192.84Q1090.24 195.17 1088.85 196.52Q1087.46 197.88 1085.18 197.88" fill="white" fill-opacity="0.7"/>
<path d="M1099.60 197.88Q1097.27 197.88 1095.84 196.48Q1094.42 195.07 1094.42 192.60L1094.42 189.48Q1094.42 187.01 1095.84 185.60Q1097.27 184.20 1099.60 184.20Q1101.16 184.20 1102.32 184.82Q1103.49 185.45 1104.14 186.58Q1104.78 187.70 1104.78 189.24L1104.78 191.59L1096.53 191.59L1096.53 192.84Q1096.53 194.30 1097.37 195.16Q1098.21 196.01 1099.60 196.01Q1100.80 196.01 1101.58 195.54Q1102.36 195.07 1102.53 194.28L1104.69 194.28Q1104.47 195.94 1103.08 196.91Q1101.69 197.88 1099.60 197.88M1096.53 189.24L1096.53 189.91L1102.67 189.91L1102.67 189.24Q1102.67 187.68 1101.87 186.83Q1101.06 185.98 1099.60 185.98Q1098.14 185.98 1097.33 186.83Q1096.53 187.68 1096.53 189.24" fill="white" fill-opacity="0.7"/>
<path d="M1114.53 197.83L1113.47 197.83Q1111.26 197.83 1110.05 196.84Q1108.84 195.84 1108.84 194.02L1111 194.02Q1111 194.93 1111.65 195.44Q1112.30 195.96 1113.47 195.96L1114.53 195.96Q1115.73 195.96 1116.39 195.43Q1117.05 194.90 1117.05 193.94Q1117.05 192.24 1115.49 192.02L1111.84 191.50Q1110.50 191.30 1109.75 190.38Q1109.01 189.46 1109.01 187.94Q1109.01 186.22 1110.20 185.23Q1111.38 184.25 1113.47 184.25L1114.53 184.25Q1116.45 184.25 1117.66 185.20Q1118.87 186.14 1118.97 187.68L1116.78 187.68Q1116.74 186.98 1116.12 186.53Q1115.51 186.07 1114.53 186.07L1113.47 186.07Q1112.37 186.07 1111.74 186.58Q1111.12 187.08 1111.12 187.94Q1111.12 189.34 1112.39 189.53L1115.80 190.01Q1119.16 190.49 1119.16 193.94Q1119.16 195.79 1117.95 196.81Q1116.74 197.83 1114.53 197.83" fill="white" fill-opacity="0.7"/>
<path d="M1128.47 201.48L1126.24 201.48L1127.56 194.14L1130.15 194.14" fill="white" fill-opacity="0.7"/>
<path d="M74.85 229.64L72.69 229.64L72.69 216.44L74.85 216.44L74.85 218.96L74.90 218.96Q75.06 217.69 75.98 216.94Q76.89 216.20 78.42 216.20Q80.49 216.20 81.60 217.44Q82.72 218.67 82.72 220.95L82.72 222.08L80.56 222.08L80.56 220.95Q80.56 218.07 77.75 218.07Q76.34 218.07 75.59 218.89Q74.85 219.70 74.85 221.24" fill="white" fill-opacity="0.7"/>
<path d="M91.58 229.88Q89.30 229.88 87.93 228.52Q86.56 227.17 86.56 224.84L86.56 216.44L88.72 216.44L88.72 224.84Q88.72 226.28 89.49 227.13Q90.26 227.98 91.58 227.98Q92.92 227.98 93.70 227.13Q94.48 226.28 94.48 224.84L94.48 216.44L96.64 216.44L96.64 224.84Q96.64 227.17 95.25 228.52Q93.86 229.88 91.58 229.88" fill="white" fill-opacity="0.7"/>
<path d="MNaN 229.64L107.92 229.64Q106.17 229.64 105.12 228.62Q104.08 227.60 104.08 225.92L104.08 214.09L99.52 214.09L99.52 212.12L106.24 212.12L106.24 225.92Q106.24 226.74 106.70 227.20Q107.15 227.67 107.92 227.67LNaN 227.67" fill="white" fill-opacity="0.7"/>
<path d="M120.40 229.88Q118.07 229.88 116.64 228.48Q115.22 227.07 115.22 224.60L115.22 221.48Q115.22 219.01 116.64 217.60Q118.07 216.20 120.40 216.20Q121.96 216.20 123.12 216.82Q124.29 217.45 124.94 218.58Q125.58 219.70 125.58 221.24L125.58 223.59L117.33 223.59L117.33 224.84Q117.33 226.30 118.17 227.16Q119.01 228.01 120.40 228.01Q121.60 228.01 122.38 227.54Q123.16 227.07 123.33 226.28L125.49 226.28Q125.27 227.94 123.88 228.91Q122.49 229.88 120.40 229.88M117.33 221.24L117.33 221.91L123.47 221.91L123.47 221.24Q123.47 219.68 122.67 218.83Q121.86 217.98 120.40 217.98Q118.94 217.98 118.13 218.83Q117.33 219.68 117.33 221.24" fill="white" fill-opacity="0.7"/>
<path d="M135.33 229.83L134.27 229.83Q132.06 229.83 130.85 228.84Q129.64 227.84 129.64 226.02L131.80 226.02Q131.80 226.93 132.45 227.44Q133.10 227.96 134.27 227.96L135.33 227.96Q136.53 227.96 137.19 227.43Q137.85 226.90 137.85 225.94Q137.85 224.24 136.29 224.02L132.64 223.50Q131.30 223.30 130.55 222.38Q129.81 221.46 129.81 219.94Q129.81 218.22 131 217.23Q132.18 216.25 134.27 216.25L135.33 216.25Q137.25 216.25 138.46 217.20Q139.67 218.14 139.77 219.68L137.58 219.68Q137.54 218.98 136.92 218.53Q136.31 218.07 135.33 218.07L134.27 218.07Q133.17 218.07 132.54 218.58Q131.92 219.08 131.92 219.94Q131.92 221.34 133.19 221.53L136.60 222.01Q139.96 222.49 139.96 225.94Q139.96 227.79 138.75 228.81Q137.54 229.83 135.33 229.83" fill="white" fill-opacity="0.7"/>
<path d="M149.27 233.48L147.04 233.48L148.36 226.14L150.95 226.14" fill="white" fill-opacity="0.7"/>
<path d="M176.85 229.88Q174.81 229.88 173.61 228.74Q172.41 227.60 172.41 225.75Q172.41 224.53 172.96 223.62Q173.51 222.70 174.50 222.19Q175.48 221.67 176.75 221.67L180.83 221.67L180.83 220.64Q180.83 218.07 178.02 218.07Q176.78 218.07 176.01 218.53Q175.24 218.98 175.19 219.80L173.03 219.80Q173.15 218.24 174.48 217.22Q175.82 216.20 178.02 216.20Q180.42 216.20 181.71 217.35Q182.99 218.50 182.99 220.57L182.99 229.64L180.86 229.64L180.86 227.24L180.81 227.24Q180.62 228.46 179.58 229.17Q178.55 229.88 176.85 229.88M177.38 228.06Q178.96 228.06 179.90 227.29Q180.83 226.52 180.83 225.20L180.83 223.35L176.99 223.35Q175.94 223.35 175.28 223.99Q174.62 224.62 174.62 225.68Q174.62 226.78 175.35 227.42Q176.08 228.06 177.38 228.06" fill="white" fill-opacity="0.7"/>
<path d="M189.57 229.64L187.41 229.64L187.41 216.44L189.57 216.44L189.57 218.96L189.59 218.96Q189.76 217.64 190.67 216.92Q191.58 216.20 193.10 216.20Q195.09 216.20 196.26 217.42Q197.44 218.65 197.44 220.76L197.44 229.64L195.28 229.64L195.28 221.14Q195.28 219.63 194.52 218.83Q193.77 218.02 192.47 218.02Q191.13 218.02 190.35 218.86Q189.57 219.70 189.57 221.24" fill="white" fill-opacity="0.7"/>
<path d="M206.03 229.88Q204.06 229.88 202.88 228.56Q201.69 227.24 201.69 224.98L201.69 221.12Q201.69 218.84 202.86 217.52Q204.04 216.20 206.03 216.20Q207.52 216.20 208.49 216.94Q209.46 217.69 209.66 218.96L209.68 218.96L209.63 215.96L209.63 212.12L211.79 212.12L211.79 229.64L209.63 229.64L209.63 227.12L209.61 227.12Q209.44 228.42 208.48 229.15Q207.52 229.88 206.03 229.88M206.75 228.01Q208.10 228.01 208.86 227.17Q209.63 226.33 209.63 224.84L209.63 221.24Q209.63 219.75 208.86 218.91Q208.10 218.07 206.75 218.07Q205.38 218.07 204.62 218.78Q203.85 219.49 203.85 221.12L203.85 224.96Q203.85 226.57 204.62 227.29Q205.38 228.01 206.75 228.01" fill="white" fill-opacity="0.7"/>
<path d="M231.86 229.64L229.84 229.64L229.84 216.44L231.71 216.44L231.71 218.19L231.76 218.19Q231.88 217.30 232.47 216.75Q233.06 216.20 233.97 216.20Q234.83 216.20 235.43 216.70Q236.03 217.21 236.30 218.07L236.32 218.07Q236.49 217.21 237.08 216.70Q237.66 216.20 238.58 216.20Q239.85 216.20 240.60 217.15Q241.36 218.10 241.36 219.61L241.36 229.64L239.34 229.64L239.34 219.58Q239.34 218.79 238.96 218.32Q238.58 217.86 237.90 217.86Q237.26 217.86 236.87 218.31Q236.49 218.77 236.49 219.56L236.49 229.64L234.71 229.64L234.71 219.58Q234.71 218.79 234.33 218.32Q233.94 217.86 233.30 217.86Q232.62 217.86 232.24 218.31Q231.86 218.77 231.86 219.56" fill="white" fill-opacity="0.7"/>
<path d="MNaN 229.83Q247.62 229.83 246.22 228.44Q244.82 227.05 244.82 224.55L244.82 221.53Q244.82 219.01 246.21 217.63Q247.60 216.25 NaN 216.25Q252.40 216.25 253.79 217.63Q255.18 219.01 255.18 221.53L255.18 224.55Q255.18 227.05 253.78 228.44Q252.38 229.83 NaN 229.83MNaN 227.91Q251.42 227.91 252.22 227.12Q253.02 226.33 253.02 224.79L253.02 221.29Q253.02 219.75 252.22 218.96Q251.42 218.17 NaN 218.17Q248.61 218.17 247.79 218.96Q246.98 219.75 246.98 221.29L246.98 224.79Q246.98 226.33 247.79 227.12Q248.61 227.91 NaN 227.91" fill="white" fill-opacity="0.7"/>
<path d="M262.05 229.64L259.89 229.64L259.89 216.44L262.05 216.44L262.05 218.96L262.10 218.96Q262.26 217.69 263.18 216.94Q264.09 216.20 265.62 216.20Q267.69 216.20 268.80 217.44Q269.92 218.67 269.92 220.95L269.92 222.08L267.76 222.08L267.76 220.95Q267.76 218.07 264.95 218.07Q263.54 218.07 262.79 218.89Q262.05 219.70 262.05 221.24" fill="white" fill-opacity="0.7"/>
<path d="M278.80 229.88Q276.47 229.88 275.04 228.48Q273.62 227.07 273.62 224.60L273.62 221.48Q273.62 219.01 275.04 217.60Q276.47 216.20 278.80 216.20Q280.36 216.20 281.52 216.82Q282.69 217.45 283.34 218.58Q283.98 219.70 283.98 221.24L283.98 223.59L275.73 223.59L275.73 224.84Q275.73 226.30 276.57 227.16Q277.41 228.01 278.80 228.01Q280 228.01 280.78 227.54Q281.56 227.07 281.73 226.28L283.89 226.28Q283.67 227.94 282.28 228.91Q280.89 229.88 278.80 229.88M275.73 221.24L275.73 221.91L281.87 221.91L281.87 221.24Q281.87 219.68 281.07 218.83Q280.26 217.98 278.80 217.98Q277.34 217.98 276.53 218.83Q275.73 219.68 275.73 221.24" fill="white" fill-opacity="0.7"/>
<path d="M76.11 136.06L66.42 136.06L84.56 65.98L97.14 65.98L115.18 136.06L105.49 136.06L101.07 117.82L80.53 117.82L76.11 136.06M87.54 88.92L82.45 109.95L99.15 109.95L94.16 89.02Q92.72 83.26 91.86 79.23Q90.99 75.20 90.80 73.76Q90.61 75.20 89.74 79.23Q88.88 83.26 87.54 88.92M149.74 136.06L128.14 136.06L128.14 65.98L148.40 65.98Q158.10 65.98 163.71 70.83Q169.33 75.68 169.33 84.12Q169.33 89.60 165.92 93.87Q162.51 98.14 157.14 99.10L157.14 99.39Q161.17 99.87 164.29 102.27Q167.41 104.67 169.18 108.36Q170.96 112.06 170.96 116.48Q170.96 125.50 165.25 130.78Q159.54 136.06 149.74 136.06M137.46 74.33L137.46 95.55L148.30 95.55Q153.68 95.55 156.75 92.72Q159.82 89.88 159.82 84.99Q159.82 80 156.75 77.16Q153.68 74.33 148.40 74.33L137.46 74.33M137.46 103.61L137.46 127.71L148.88 127.71Q154.74 127.71 158.10 124.59Q161.46 121.47 161.46 116.09Q161.46 110.52 158.10 107.07Q154.74 103.61 148.88 103.61L137.46 103.61M230.19 136.06L189.49 136.06L189.49 65.98L198.99 65.98L198.99 127.42L230.19 127.42L230.19 136.06M268.40 136.06L258.90 136.06L258.90 110.04L237.87 65.98L247.95 65.98L260.91 93.63Q262.06 96.12 262.78 98.14Q263.50 100.16 263.70 101.02Q263.98 100.16 264.70 98.14Q265.42 96.12 266.67 93.63L279.54 65.98L289.33 65.98L268.40 110.04L268.40 136.06M379.57 137.02Q369.87 137.02 364.16 131.60Q358.45 126.17 358.45 116.67L358.45 85.28Q358.45 75.87 364.16 70.44Q369.87 65.02 379.57 65.02Q389.17 65.02 394.88 70.49Q400.59 75.96 400.59 85.28L391.09 85.28Q391.09 79.61 388.02 76.54Q384.94 73.47 379.57 73.47Q374.10 73.47 371.02 76.54Q367.95 79.61 367.95 85.28L367.95 116.67Q367.95 122.43 371.02 125.50Q374.10 128.57 379.57 128.57Q384.94 128.57 388.02 125.50Q391.09 122.43 391.09 116.67L400.59 116.67Q400.59 126.08 394.88 131.55Q389.17 137.02 379.57 137.02M436.40 137.02Q426.80 137.02 421.23 131.45Q415.66 125.88 415.66 115.71L415.66 86.24Q415.66 76.16 421.23 70.59Q426.80 65.02 436.40 65.02Q446 65.02 451.57 70.54Q457.14 76.06 457.14 86.24L457.14 115.71Q457.14 125.88 451.57 131.45Q446 137.02 436.40 137.02M436.40 128.57Q441.78 128.57 444.70 125.50Q447.63 122.43 447.63 116.67L447.63 85.28Q447.63 79.61 444.75 76.54Q441.87 73.47 436.40 73.47Q430.93 73.47 428.05 76.54Q425.17 79.61 425.17 85.28L425.17 116.67Q425.17 122.43 428.10 125.50Q431.02 128.57 436.40 128.57M482.38 136.06L473.46 136.06L473.46 65.98L485.74 65.98L506.67 125.12Q506.38 122.62 506.14 118.92Q505.90 115.23 505.76 111.24Q505.62 107.26 505.62 103.71L505.62 65.98L514.64 65.98L514.64 136.06L502.26 136.06L481.52 76.92Q481.71 79.42 481.90 83.02Q482.10 86.62 482.24 90.56Q482.38 94.49 482.38 97.95L482.38 136.06M556.40 136.06L546.90 136.06L546.90 74.62L527.89 74.62L527.89 65.98L575.31 65.98L575.31 74.62L556.40 74.62L556.40 136.06M598.35 136.06L588.94 136.06L588.94 65.98L610.64 65.98Q617.07 65.98 621.87 68.52Q626.67 71.07 629.36 75.63Q632.05 80.19 632.05 86.33Q632.05 93.44 628.45 98.52Q624.85 103.61 618.90 105.72L633.01 136.06L622.54 136.06L609.20 106.78L598.35 106.78L598.35 136.06M598.35 74.43L598.35 98.33L610.64 98.33Q616.02 98.33 619.14 95.07Q622.26 91.80 622.26 86.43Q622.26 80.96 619.09 77.69Q615.92 74.43 610.64 74.43L598.35 74.43M666.80 137.02Q657.20 137.02 651.63 131.45Q646.06 125.88 646.06 115.71L646.06 86.24Q646.06 76.16 651.63 70.59Q657.20 65.02 666.80 65.02Q676.40 65.02 681.97 70.54Q687.54 76.06 687.54 86.24L687.54 115.71Q687.54 125.88 681.97 131.45Q676.40 137.02 666.80 137.02M666.80 128.57Q672.18 128.57 675.10 125.50Q678.03 122.43 678.03 116.67L678.03 85.28Q678.03 79.61 675.15 76.54Q672.27 73.47 666.80 73.47Q661.33 73.47 658.45 76.54Q655.57 79.61 655.57 85.28L655.57 116.67Q655.57 122.43 658.50 125.50Q661.42 128.57 666.80 128.57M748.59 136.06L707.89 136.06L707.89 65.98L717.39 65.98L717.39 127.42L748.59 127.42" fill="url(#paint2_linear_0_1)"/>
<g id="Group 1">
<rect id="Rectangle 1" x="26" y="168" width="12" height="184" rx="5" fill="url(#paint3_linear_0_1)" fill-opacity="0.9"/>
</g>
<g id="Group 1_2">
<rect id="Rectangle 2" x="26" y="38" width="12" height="119" rx="5" fill="url(#paint4_linear_0_1)" fill-opacity="0.9"/>
</g>
<ellipse id="Ellipse 1" cx="148.5" cy="573" rx="215.5" ry="214" fill="url(#paint5_linear_0_1)" fill-opacity="0.4"/>
<rect id="Rectangle 3" x="1229" y="48" width="300" height="300" rx="25" fill="#FFFBFB" fill-opacity="0.9"/>
<g id="placeholder-logo"><g transform="translate(1229,48) translate(0.0,60.0) scale(1.2000)"><g fill="#666666">
  <path d="m88.05,27.65c-3.15,4 -3.2,51.2 -0.05,54.35c2.75,2.75 71.7,3.15 74.45,0.45c2.85,-2.9 2.3,-53.85 -0.65,-55.9c-1.95,-1.35 -7.15,-1.55 -36.95,-1.55l-34.7,0l-2.1,2.65zm69.45,3.35c0.65,0 1,8.6 1,23.75l0,23.75l-33,0l-33,0l-0.25,-23c-0.15,-12.6 -0.1,-23.45 0.15,-24.1c0.35,-0.85 8.9,-1.05 32.25,-0.75c17.55,0.2 32.3,0.35 32.85,0.35z"/>
  <path d="m99.15,37.3c-6.85,7.35 4.25,17.35 11.4,10.25c1.35,-1.35 2.45,-3.65 2.45,-5.05c0,-6.45 -9.35,-9.95 -13.85,-5.2z"/>
  <path d="m135,42.5c-0.7,0.85 -5.25,5.15 -10.1,9.6l-8.85,8.1l-3.2,-3.2l-3.15,-3.15l-6.35,6.3c-5.55,5.5 -6.35,6.75 -6.35,10.05l0,3.8l28.5,0l28.5,0l0,-8.6l0,-8.55l-8.15,-7.7c-9.35,-8.85 -9.15,-8.7 -10.85,-6.65zm7.25,15.2c0.95,0.9 1.75,2.9 1.75,4.45c6.35,-5.05 4.75,-7.15 4.9,-11.55c0.95,0 0,0 0,0l-6.65,7.1z"/>
  <path d="m53.65,110.75c0.1,4.8 0.45,8.65 0.75,8.5c0.35,-0.15 1.3,-0.25 2.1,-0.25c1.1,0 1.5,-1.2 1.5,-4.75l0,-4.75l3.25,5c4.9,7.5 6.2,6.75 6.55,-3.75c0.25,-8.15 0.15,-8.75 -1.7,-8.75c-1.65,0 -2.05,0.8 -2.3,4.75l-0.3,4.75l-2.8,-4.75c-4.85,-8.25 -7.25,-6.9 -7.05,4z"/>
  <path d="m91,108.9c0,9.65 0.3,10.1 6.1,10.1c5.8,0 7.15,-2.65 1.65,-3.2l-3.25,-0.3l-0.3,-6.75c-0.25,-5.95 -0.55,-6.75 -2.25,-6.75c-1.75,0 -1.95,0.7 -1.95,6.9z"/>
  <path d="m151,102.45c0,0.25 1,2.15 2.25,4.2c1.2,2.1 2.45,5.8 2.75,8.25c0.65,5.9 4,6.95 4,1.25c0.05,-2.1 1.25,-5.85 2.95,-8.9l2.9,-5.25l-2.5,0c-1.8,0 -2.8,0.85 -3.75,3.1l-1.3,3.05l-1.25,-3.05c-1.1,-2.6 -6.05,-4.8 -6.05,-2.65z"/>
  <path d="m191,107.45c0,9.05 3.4,8.85 4.25,-0.2c0.45,-5 0.35,-5.25 -1.9,-5.25c-2.2,0 -2.35,0.4 -2.35,5.45z"/>
  <path d="m180.8,104.75c-1.3,5.35 0.65,13.6 3.45,14.35c2.3,0.6 2.75,0.4 2.75,-1.2c0,-1.05 -0.45,-1.9 -1,-1.9c-0.55,0 -1,-1.6 -1,-3.5c0,-1.95 0.45,-3.5 1,-3.5c0.55,0 1,-0.7 1,-1.5c0,-0.85 -0.45,-1.5 -1,-1.5c-0.55,0 -1,-0.7 -1,-1.5c0,-2.1 -3.65,-1.9 -4.2,0.25z"/>
  <path d="m71.55,106.55c-2.2,2.25 -2.05,9.7 0.3,11.8c4.5,4.1 10.15,0.75 10.15,-6.1c0,-4.85 -2,-7.25 -6,-7.25c-1.55,0 -3.55,0.7 -4.45,1.55zm6.25,5.8c0.25,3.05 0,3.65 -1.6,3.65c-2.3,0 -3.25,-2.65 -2.05,-5.85c1.25,-3.35 3.3,-2.1 3.65,2.2z"/>
  <path d="m105.75,106.1c-2.5,1.45 -2.45,9.95 0.1,12.25c4.3,3.9 10.15,0.35 10.15,-6.2c0,-6 -5.15,-9.05 -10.25,-6.05zm6.05,6.25c0.25,3.05 0,3.65 -1.6,3.65c-2.3,0 -3.25,-2.65 -2.05,-5.85c1.25,-3.35 3.3,-2.1 3.65,2.2z"/>
  <path d="m119.2,106.2c-3.8,3.8 -0.4,12.55 4.4,11.35c1.9,-0.45 2.45,-0.3 2.15,0.65c-0.25,0.7 -1.55,1.2 -2.85,1.1c-4.05,-0.3 -5.35,0.45 -3.85,2.25c0.85,1.05 2.6,1.45 5.35,1.25l4.1,-0.3l0.3,-8.75l0.3,-8.75l-4.35,0c-2.4,0 -4.9,0.55 -5.55,1.2zm6.6,4.45c0.4,2.85 -2.15,4.85 -3.75,2.95c-0.9,-1.1 -0.9,-2 -0.05,-3.6c1.35,-2.5 3.4,-2.15 3.8,0.65z"/>
  <path d="m133.55,106.55c-2.2,2.25 -2.05,9.7 0.3,11.8c4.5,4.1 10.15,0.75 10.15,-6.1c0,-4.85 -2,-7.25 -6,-7.25c-1.55,0 -3.55,0.7 -4.45,1.55zm6.25,5.8c0.25,3.05 0,3.65 -1.6,3.65c-2.3,0 -3.25,-2.65 -2.05,-5.85c1.25,-3.35 3.3,-2.1 3.65,2.2z"/>
  <path d="m167.65,106.85c-3.9,4.3 -0.75,13.15 4.7,13.15c2.4,0 5.65,-2.75 5.65,-4.85c0,-1.4 -2.65,-1.55 -3.5,-0.15c-0.95,1.55 -4.5,1.15 -4.5,-0.5c0,-1.1 1.1,-1.5 4,-1.5c3.15,0 4,-0.35 4,-1.8c0,-5.3 -6.85,-8.25 -10.35,-4.35z"/>
  <path d="m191,117.5c0,2.15 0.4,2.6 2.25,2.3c1.5,-0.2 2.25,-1 2.25,-2.3c0,-1.3 -0.75,-2.1 -2.25,-2.3c-1.85,-0.3 -2.25,0.15 -2.25,2.3z"/>
 </g></g></g>
</g>
<defs>
<linearGradient id="paint0_linear_0_1" x1="0" y1="198" x2="1584" y2="198" gradientUnits="userSpaceOnUse">
<stop stop-color="#3D052C"/>
<stop offset="1"/>
</linearGradient>
<linearGradient id="paint1_linear_0_1" x1="323" y1="-224" x2="323" y2="352" gradientUnits="userSpaceOnUse">
<stop stop-color="#28F6F2" stop-opacity="0.4"/>
<stop offset="1" stop-color="#17908E" stop-opacity="0.7"/>
</linearGradient>
<linearGradient id="paint2_linear_0_1" x1="148.5" y1="38" x2="148.5" y2="140" gradientUnits="userSpaceOnUse">
<stop stop-color="white"/>
<stop offset="1" stop-color="#999999"/>
</linearGradient>
<linearGradient id="paint3_linear_0_1" x1="38" y1="260" x2="26" y2="260" gradientUnits="userSpaceOnUse">
<stop stop-color="#D9D9D9"/>
<stop offset="1" stop-color="#737373"/>
</linearGradient>
<linearGradient id="paint4_linear_0_1" x1="38" y1="97.5" x2="26" y2="97.5" gradientUnits="userSpaceOnUse">
<stop stop-color="#D9D9D9"/>
<stop offset="1" stop-color="#737373"/>
</linearGradient>
<linearGradient id="paint5_linear_0_1" x1="27.5" y1="434.5" x2="148.5" y2="787" gradientUnits="userSpaceOnUse">
<stop stop-color="#2E21BC"/>
<stop offset="1" stop-color="#150F56"/>
</linearGradient>
<clipPath id="clip0_0_1">
<rect width="1584" height="396" fill="white"/>
</clipPath>
</defs>
</svg>
